<svg width="70" height="71" viewBox="0 0 70 71" fill="none" xmlns="http://www.w3.org/2000/svg">
<rect y="0.610352" width="70" height="70" rx="16" fill="url(#paint0_linear_0_579)"/>
<path fill-rule="evenodd" clip-rule="evenodd" d="M46.3889 18.9024C46.2855 18.3746 45.8228 17.9938 45.2849 17.9938C44.747 17.9938 44.2844 18.3746 44.1809 18.9024C43.6529 21.5904 41.5409 23.7174 38.9519 24.2379C38.4276 24.3444 38.0508 24.8054 38.0508 25.3404C38.0508 25.8754 38.4276 26.3365 38.9519 26.4429C41.5409 26.9649 43.6529 29.0889 44.1794 31.7754C44.2829 32.3033 44.7455 32.6841 45.2834 32.6841C45.8213 32.6841 46.284 32.3033 46.3874 31.7754C46.9154 29.0889 49.0274 26.9649 51.6164 26.4444C52.1407 26.338 52.5176 25.8769 52.5176 25.3419C52.5176 24.8069 52.1407 24.3459 51.6164 24.2394C49.0274 23.7174 46.9154 21.5919 46.3889 18.9024ZM21.8579 27.3474C21.0988 27.3474 20.4832 27.9623 20.4824 28.7214L20.4824 40.6824H46.2374V36.4464C46.2374 35.618 46.909 34.9464 47.7374 34.9464C48.5658 34.9464 49.2374 35.618 49.2374 36.4464V43.0989C49.2374 45.5154 47.2784 47.4744 44.8619 47.4744H34.8569V50.2269H37.6724C38.5009 50.2269 39.1724 50.8985 39.1724 51.7269C39.1724 52.5553 38.5009 53.2269 37.6724 53.2269H29.0474C28.219 53.2269 27.5474 52.5553 27.5474 51.7269C27.5474 50.8985 28.219 50.2269 29.0474 50.2269H31.8569V47.4744H21.8579C19.4414 47.4744 17.4824 45.5154 17.4824 43.0989V28.7214C17.4824 26.3049 19.4414 24.3459 21.8579 24.3459H33.6809C34.5093 24.3459 35.1809 25.0175 35.1809 25.8459C35.1809 26.6743 34.5093 27.3459 33.6809 27.3459H21.8579V27.3474Z" fill="white"/>
<defs>
<linearGradient id="paint0_linear_0_579" x1="0" y1="0.610352" x2="70" y2="70.6104" gradientUnits="userSpaceOnUse">
<stop stop-color="#1A7CE0"/>
<stop offset="0.77" stop-color="#1A7CE0" stop-opacity="0.7"/>
</linearGradient>
</defs>
</svg>
