<svg width="70" height="71" viewBox="0 0 70 71" fill="none" xmlns="http://www.w3.org/2000/svg">
<rect y="0.610352" width="70" height="70" rx="16" fill="url(#paint0_linear_0_559)"/>
<path fill-rule="evenodd" clip-rule="evenodd" d="M18.875 48.6104H24.125C24.3321 48.6104 24.5 48.4425 24.5 48.2354V45.2354C24.5 44.4069 23.8284 43.7354 23 43.7354H20C19.1716 43.7354 18.5 44.4069 18.5 45.2354V48.2354C18.5 48.4425 18.6679 48.6104 18.875 48.6104ZM29 36.2354C28.1716 36.2354 27.5 36.9069 27.5 37.7354V48.2354C27.5 48.4425 27.6679 48.6104 27.875 48.6104H33.125C33.3321 48.6104 33.5 48.4425 33.5 48.2354V37.7354C33.5 36.9069 32.8284 36.2354 32 36.2354H29ZM38 39.2354C37.1716 39.2354 36.5 39.9069 36.5 40.7354V48.2354C36.5 48.4425 36.6679 48.6104 36.875 48.6104H42.125C42.3321 48.6104 42.5 48.4425 42.5 48.2354V40.7354C42.5 39.9069 41.8284 39.2354 41 39.2354H38ZM47 28.7354C46.1716 28.7354 45.5 29.4069 45.5 30.2354V48.2354C45.5 48.4425 45.6679 48.6104 45.875 48.6104H51.125C51.3321 48.6104 51.5 48.4425 51.5 48.2354V30.2354C51.5 29.4069 50.8284 28.7354 50 28.7354H47ZM48.5 16.7354C46.8431 16.7354 45.5 18.0785 45.5 19.7354C45.5018 19.9673 45.527 20.1984 45.575 20.4254C45.6039 20.541 45.576 20.6635 45.5 20.7554L40.61 26.4554C40.5159 26.5601 40.3725 26.606 40.235 26.5754C39.9947 26.5151 39.7478 26.4849 39.5 26.4854C38.7004 26.4847 37.9337 26.8033 37.37 27.3704C37.275 27.4739 37.1267 27.5095 36.995 27.4604L33.725 26.3804C33.6099 26.3332 33.5256 26.2321 33.5 26.1104C33.3837 24.4537 31.9467 23.2049 30.29 23.3209C28.6334 23.4368 27.3843 24.8737 27.5 26.5304C27.4763 26.7597 27.4763 26.991 27.5 27.2204C27.5805 27.3379 27.5805 27.4928 27.5 27.6104L23.105 31.1804C22.9852 31.2533 22.8348 31.2533 22.715 31.1804C21.5058 30.6451 20.0887 30.9647 19.2264 31.9672C18.364 32.9696 18.2597 34.4186 18.9697 35.5342C19.6796 36.6499 21.0363 37.1691 22.3097 36.8124C23.5831 36.4558 24.4728 35.3075 24.5 33.9854C24.523 33.7559 24.523 33.5248 24.5 33.2954C24.4298 33.1802 24.4298 33.0355 24.5 32.9203L28.85 29.2904C28.9698 29.2174 29.1202 29.2174 29.24 29.2904C29.6412 29.4449 30.0709 29.5114 30.5 29.4854C31.2996 29.486 32.0663 29.1674 32.63 28.6004C32.725 28.4968 32.8733 28.4612 33.005 28.5104L36.275 29.5904C36.4143 29.6364 36.5139 29.7595 36.53 29.9054C36.6896 31.0623 37.506 32.0214 38.6226 32.3637C39.7392 32.706 40.9529 32.3692 41.7334 31.5005C42.514 30.6318 42.7194 29.3891 42.26 28.3154C42.1871 28.1956 42.1871 28.0451 42.26 27.9254L46.76 22.6004C46.8659 22.4732 47.0427 22.4305 47.195 22.4954C47.5708 22.6511 47.9732 22.7326 48.38 22.7354C50.0369 22.7354 51.38 21.3922 51.38 19.7354C51.38 18.0785 50.0369 16.7354 48.38 16.7354H48.5ZM18.5 53.4854H51.5C52.3284 53.4854 53 52.8138 53 51.9854C53.0012 51.4118 52.6751 50.8877 52.16 50.6354C51.9535 50.5381 51.7283 50.4869 51.5 50.4854H18.5C18.2717 50.4869 18.0465 50.5381 17.84 50.6353C17.3249 50.8877 16.9989 51.4118 17 51.9854C17 52.8138 17.6716 53.4854 18.5 53.4854Z" fill="white"/>
<defs>
<linearGradient id="paint0_linear_0_559" x1="0" y1="0.610352" x2="70" y2="70.6104" gradientUnits="userSpaceOnUse">
<stop stop-color="#1A7CE0"/>
<stop offset="0.77" stop-color="#1A7CE0" stop-opacity="0.7"/>
</linearGradient>
</defs>
</svg>
