<svg width="21" height="21" viewBox="0 0 21 21" fill="none" xmlns="http://www.w3.org/2000/svg">
<path d="M20.2588 10.3701C20.2588 12.1923 19.8143 13.8701 18.9255 15.4035C18.0366 16.9368 16.8255 18.1479 15.2921 19.0368C13.7588 19.9257 12.081 20.3701 10.2588 20.3701C8.43657 20.3701 6.75879 19.9257 5.22546 19.0368C3.69212 18.1479 2.48101 16.9368 1.59212 15.4035C0.703234 13.8701 0.258789 12.1923 0.258789 10.3701C0.258789 8.54789 0.703234 6.87012 1.59212 5.33678C2.48101 3.80345 3.69212 2.59234 5.22546 1.70345C6.75879 0.81456 8.43657 0.370115 10.2588 0.370115C12.081 0.370115 13.7588 0.81456 15.2921 1.70345C16.8255 2.59234 18.0366 3.80345 18.9255 5.33678C19.8143 6.87012 20.2588 8.54789 20.2588 10.3701ZM15.3255 6.57012C15.1032 6.39234 14.8588 6.30345 14.5921 6.30345C14.3255 6.30345 14.1032 6.41456 13.9255 6.63678L9.59212 12.1701L6.99212 9.50345C6.81434 9.32567 6.59212 9.24789 6.32546 9.27012C6.05879 9.29234 5.83657 9.39234 5.65879 9.57012C5.48101 9.74789 5.39212 9.95901 5.39212 10.2035C5.39212 10.4479 5.48101 10.659 5.65879 10.8368L8.99212 14.1701C9.1699 14.3479 9.39212 14.4368 9.65879 14.4368C9.92546 14.4368 10.1477 14.3257 10.3255 14.1035L15.3255 7.90345C15.5032 7.72567 15.5921 7.50345 15.5921 7.23678C15.5921 6.97012 15.5032 6.74789 15.3255 6.57012Z" fill="#F4CC48"/>
</svg>
