<svg width="70" height="71" viewBox="0 0 70 71" fill="none" xmlns="http://www.w3.org/2000/svg">
<rect y="0.200195" width="70" height="70" rx="16" fill="url(#paint0_linear_0_597)"/>
<path fill-rule="evenodd" clip-rule="evenodd" d="M47.9155 20.8564C47.9155 20.4786 47.6874 20.247 47.3152 20.247H20.6021C20.2315 20.247 20.0018 20.4786 20.0018 20.8564V41.7273C20.0018 42.1036 20.2315 42.3367 20.6021 42.3367H32.7401V50.618C32.7401 50.9242 32.7836 51.2121 32.8601 51.4772H27.8042C26.9753 51.4772 26.3034 50.7951 26.3034 49.9538C26.3034 49.1124 26.9753 48.4304 27.8042 48.4304H28.4255L28.9507 45.3835H20.6021C19.6427 45.3976 18.7185 45.0169 18.04 44.3282C17.3615 43.6394 16.9865 42.7012 17.0004 41.7273V20.8564C17.0004 18.7952 18.5731 17.2002 20.6021 17.2002H47.3152C49.3457 17.2002 50.917 18.7952 50.917 20.8564V33.315C50.917 34.1563 50.2451 34.8384 49.4162 34.8384C48.5874 34.8384 47.9155 34.1563 47.9155 33.315V20.8564ZM29.2043 26.295V34.4804C29.2043 35.9033 30.606 36.6162 31.8336 36.0815L38.8451 31.9896C40.0727 31.2766 40.0727 29.4973 38.8451 28.9641L31.8336 24.8706C30.606 23.9809 29.2043 24.8706 29.2043 26.295ZM42.87 40.8193C41.83 40.1033 39.8731 39.2959 36.2518 39.1009C35.5314 39.1009 34.9912 39.4665 34.9912 40.015V50.618C34.9912 51.1664 35.5314 51.532 36.0717 51.532C39.8085 51.6295 41.8135 52.4522 42.87 53.2002V40.8193ZM45.1211 53.2002C46.1777 52.4522 48.1826 51.6311 51.9195 51.532C52.4597 51.532 53 51.1664 53 50.618V40.015C53 39.4665 52.4597 39.1009 51.7394 39.1009C48.1181 39.2944 46.1612 40.1018 45.1211 40.8193V53.2002Z" fill="white"/>
<defs>
<linearGradient id="paint0_linear_0_597" x1="0" y1="0.200195" x2="70" y2="70.2002" gradientUnits="userSpaceOnUse">
<stop stop-color="#1A7CE0"/>
<stop offset="0.77" stop-color="#1A7CE0" stop-opacity="0.7"/>
</linearGradient>
</defs>
</svg>
