<svg width="70" height="70" viewBox="0 0 70 70" fill="none" xmlns="http://www.w3.org/2000/svg">
<rect width="70" height="70" rx="16" fill="url(#paint0_linear_0_655)"/>
<path fill-rule="evenodd" clip-rule="evenodd" d="M51.4348 28.6667H45.5652C45.4651 28.6687 45.3687 28.6286 45.2991 28.5558L39.8209 23.2358C39.7423 23.1622 39.6971 23.0592 39.6957 22.9508V17.5833C39.6957 16.7089 38.9949 16 38.1304 16H31.8696C31.0051 16 30.3043 16.7089 30.3043 17.5833V22.9508C30.3029 23.0592 30.2577 23.1622 30.1791 23.2358L24.7009 28.5558C24.6313 28.6286 24.5349 28.6687 24.4348 28.6667H18.5652C17.7008 28.6667 17 29.3755 17 30.25V36.5833C17 37.4578 17.7008 38.1667 18.5652 38.1667H24.8261C25.6905 38.1667 26.3913 37.4578 26.3913 36.5833V31.4692C26.3927 31.3608 26.438 31.2578 26.5165 31.1842L32.2609 25.6108C32.328 25.5345 32.4261 25.4936 32.527 25.5H37.473C37.5739 25.4936 37.672 25.5345 37.7391 25.6108L43.4835 31.1842C43.562 31.2578 43.6073 31.3608 43.6087 31.4692V36.5833C43.6087 37.4578 44.3095 38.1667 45.1739 38.1667H51.4348C52.2992 38.1667 53 37.4578 53 36.5833V30.25C53 29.3755 52.2992 28.6667 51.4348 28.6667ZM49.8696 34.6042C49.8696 34.8228 49.6944 35 49.4783 35H47.1304C46.9143 35 46.7391 34.8228 46.7391 34.6042V32.2292C46.7391 32.0106 46.9143 31.8333 47.1304 31.8333H49.4783C49.6944 31.8333 49.8696 32.0106 49.8696 32.2292V34.6042ZM33.4348 19.5625C33.4348 19.3439 33.61 19.1667 33.8261 19.1667H36.1739C36.39 19.1667 36.5652 19.3439 36.5652 19.5625V21.9375C36.5652 22.1561 36.39 22.3333 36.1739 22.3333H33.8261C33.61 22.3333 33.4348 22.1561 33.4348 21.9375V19.5625ZM20.1304 32.2292C20.1304 32.0106 20.3056 31.8333 20.5217 31.8333H22.8696C23.0857 31.8333 23.2609 32.0106 23.2609 32.2292V34.6042C23.2609 34.8228 23.0857 35 22.8696 35H20.5217C20.3056 35 20.1304 34.8228 20.1304 34.6042V32.2292ZM36.1583 33.575C36.0323 33.0308 35.5525 32.6459 35 32.6459C34.4475 32.6459 33.9677 33.0308 33.8417 33.575C33.2626 36.5833 29.3652 41.0008 27.9096 42.4733C27.58 42.7981 27.4752 43.2911 27.6435 43.7242L29.6626 49.25C29.7269 49.3627 29.7269 49.5015 29.6626 49.6142C28.9121 50.5337 28.4684 51.6699 28.3948 52.86C28.4261 53.476 28.9128 53.9683 29.5217 54H40.4783C41.1231 53.9915 41.6437 53.4648 41.6522 52.8125C41.5786 51.6224 41.1348 50.4862 40.3843 49.5667C40.32 49.454 40.32 49.3152 40.3843 49.2025L42.4035 43.7242C42.5718 43.2911 42.4669 42.7981 42.1374 42.4733C40.6348 41.0008 36.7374 36.5833 36.1583 33.575ZM35 46.4792C34.1356 46.4792 33.4348 45.7703 33.4348 44.8958C33.4348 44.0214 34.1356 43.3125 35 43.3125C35.8644 43.3125 36.5652 44.0214 36.5652 44.8958C36.5652 45.7703 35.8644 46.4792 35 46.4792Z" fill="white"/>
<defs>
<linearGradient id="paint0_linear_0_655" x1="0" y1="0" x2="70" y2="70" gradientUnits="userSpaceOnUse">
<stop stop-color="#1A7CE0"/>
<stop offset="0.77" stop-color="#1A7CE0" stop-opacity="0.7"/>
</linearGradient>
</defs>
</svg>
