<svg width="58" height="46" viewBox="0 0 58 46" fill="none" xmlns="http://www.w3.org/2000/svg">
<path d="M5.46132 6.82749C9.43644 2.518 15.4517 0.333496 23.3368 0.333496H26.1702V8.32063L23.8922 8.77687C20.0104 9.55313 17.3103 11.0804 15.8653 13.3215C15.1111 14.5287 14.6835 15.9112 14.6243 17.3335H23.3368C24.0883 17.3335 24.8089 17.632 25.3403 18.1633C25.8716 18.6947 26.1702 19.4154 26.1702 20.1669V40.0001C26.1702 43.1254 23.6287 45.6669 20.5034 45.6669H3.5035C2.75204 45.6669 2.03138 45.3683 1.50003 44.8369C0.968669 44.3056 0.67016 43.5849 0.67016 42.8335V28.6669L0.67866 20.3964C0.65316 20.0819 0.114823 12.6301 5.46132 6.82749ZM51.6702 45.6669H34.6702C33.9187 45.6669 33.1981 45.3683 32.6667 44.8369C32.1354 44.3056 31.8368 43.5849 31.8368 42.8335V28.6669L31.8453 20.3964C31.8198 20.0819 31.2814 12.6301 36.6279 6.82749C40.6032 2.518 46.6183 0.333496 54.5034 0.333496H57.3368V8.32063L55.0588 8.77687C51.1772 9.55313 48.4771 11.0804 47.0321 13.3215C46.2778 14.5287 45.8501 15.9112 45.7909 17.3335H54.5034C55.2549 17.3335 55.9756 17.632 56.507 18.1633C57.0384 18.6947 57.3368 19.4154 57.3368 20.1669V40.0001C57.3368 43.1254 54.7953 45.6669 51.6702 45.6669Z" fill="#F4CC48"/>
</svg>
