<svg width="70" height="70" viewBox="0 0 70 70" fill="none" xmlns="http://www.w3.org/2000/svg">
<rect width="70" height="70" rx="16" fill="url(#paint0_linear_0_673)"/>
<path fill-rule="evenodd" clip-rule="evenodd" d="M41.825 35.0149C40.5824 35.0149 39.575 36.0223 39.575 37.2649V47.0149C39.5746 47.16 39.4937 47.2929 39.365 47.3599C39.2428 47.443 39.0822 47.443 38.96 47.3599L37.64 46.2649C37.3131 45.5657 36.5912 45.1382 35.821 45.1878C35.0507 45.2374 34.3895 45.7539 34.1551 46.4893C33.9206 47.2246 34.1607 48.0286 34.76 48.5149L38.255 52.7149C38.3948 52.886 38.6041 52.9851 38.825 52.9849H50.825C51.2392 52.9849 51.575 52.6491 51.575 52.2349V49.0099C51.575 46.2512 49.3387 44.0149 46.58 44.0149H44.825C44.4108 44.0149 44.075 43.6791 44.075 43.2649V37.2649C44.075 36.0223 43.0676 35.0149 41.825 35.0149ZM31.775 30.5149C31.775 28.858 30.4319 27.5149 28.775 27.5149C27.1181 27.5149 25.775 28.858 25.775 30.5149C25.775 32.1717 27.1181 33.5149 28.775 33.5149C30.4319 33.5149 31.775 32.1717 31.775 30.5149ZM23.975 38.1649C23.9313 38.2601 23.9313 38.3697 23.975 38.4649C24.0395 38.549 24.139 38.5987 24.245 38.5999H33.035C33.153 38.5999 33.2642 38.5443 33.335 38.4499C33.3864 38.3406 33.3864 38.2141 33.335 38.1049C32.6647 36.0589 30.7555 34.6753 28.6025 34.6753C26.4495 34.6753 24.5403 36.0589 23.87 38.1049L23.975 38.1649ZM31.25 46.2649C31.25 45.4365 30.5784 44.7649 29.75 44.7649H21.5C20.6716 44.7649 20 44.0933 20 43.2649V24.8899C20 24.6828 20.1679 24.5149 20.375 24.5149H49.625C49.8321 24.5149 50 24.6828 50 24.8899V41.0149C50 41.8433 50.6716 42.5149 51.5 42.5149C52.3284 42.5149 53 41.8433 53 41.0149V21.5149C53 19.0296 50.9853 17.0149 48.5 17.0149H21.5C19.0147 17.0149 17 19.0296 17 21.5149V43.2649C17 45.7502 19.0147 47.7649 21.5 47.7649H29.75C30.5784 47.7649 31.25 47.0933 31.25 46.2649ZM31.475 20.0149C31.7485 19.5736 32.2308 19.3051 32.75 19.3051C33.2692 19.3051 33.7515 19.5736 34.025 20.0149C34.3243 20.4701 34.3243 21.0597 34.025 21.5149C33.7515 21.9562 33.2692 22.2247 32.75 22.2247C32.2308 22.2247 31.7485 21.9562 31.475 21.5149C31.1757 21.0597 31.1757 20.4701 31.475 20.0149ZM26.225 20.0149C26.4985 19.5736 26.9808 19.3051 27.5 19.3051C28.0192 19.3051 28.5015 19.5736 28.775 20.0149C29.0743 20.4701 29.0743 21.0597 28.775 21.5149C28.5015 21.9562 28.0192 22.2247 27.5 22.2247C26.9808 22.2247 26.4985 21.9562 26.225 21.5149C25.9257 21.0597 25.9257 20.4701 26.225 20.0149ZM20.885 20.1499C21.1211 19.6503 21.6127 19.3209 22.1646 19.2927C22.7165 19.2645 23.2392 19.542 23.525 20.0149C23.8243 20.4701 23.8243 21.0597 23.525 21.5149C23.2515 21.9562 22.7692 22.2247 22.25 22.2247C21.7308 22.2247 21.2485 21.9562 20.975 21.5149C20.8349 21.2892 20.7573 21.0304 20.75 20.7649C20.7558 20.5532 20.8016 20.3446 20.885 20.1499Z" fill="white"/>
<defs>
<linearGradient id="paint0_linear_0_673" x1="0" y1="0" x2="70" y2="70" gradientUnits="userSpaceOnUse">
<stop stop-color="#1A7CE0"/>
<stop offset="0.77" stop-color="#1A7CE0" stop-opacity="0.7"/>
</linearGradient>
</defs>
</svg>
