<svg width="70" height="71" viewBox="0 0 70 71" fill="none" xmlns="http://www.w3.org/2000/svg">
<rect y="0.200195" width="70" height="70" rx="16" fill="url(#paint0_linear_0_636)"/>
<path fill-rule="evenodd" clip-rule="evenodd" d="M48.5 18.7002C50.9853 18.7002 53 20.7149 53 23.2002V41.2002C53 43.6855 50.9853 45.7002 48.5 45.7002H39.125L39.875 48.7002H43.25C44.0784 48.7002 44.75 49.3718 44.75 50.2002C44.75 51.0286 44.0784 51.7002 43.25 51.7002H26.75C25.9216 51.7002 25.25 51.0286 25.25 50.2002C25.25 49.3718 25.9216 48.7002 26.75 48.7002H30.125L30.875 45.7002H21.5C19.0147 45.7002 17 43.6855 17 41.2002V23.2002C17 20.7149 19.0147 18.7002 21.5 18.7002H48.5ZM50 23.2002C50 22.3718 49.3284 21.7002 48.5 21.7002H21.5C20.6716 21.7002 20 22.3718 20 23.2002V41.2002C20 42.0286 20.6716 42.7002 21.5 42.7002H48.5C49.3284 42.7002 50 42.0286 50 41.2002V23.2002ZM40.625 26.8752C42.23 26.8752 43.625 28.1862 43.625 29.8752C43.625 30.3027 43.5575 30.6312 43.448 30.9267C43.1622 31.7046 43.5611 32.5669 44.339 32.8527C45.1169 33.1385 45.9792 32.7396 46.265 31.9617C46.5088 31.2933 46.6308 30.5866 46.625 29.8752C46.625 26.4642 43.82 23.8752 40.625 23.8752H33.425C30.014 23.8752 27.425 26.6802 27.425 29.8752C27.425 33.2862 30.23 35.8752 33.425 35.8752H34.775C35.6034 35.8752 36.275 35.2036 36.275 34.3752C36.275 33.5468 35.6034 32.8752 34.775 32.8752H33.425C31.82 32.8752 30.425 31.5642 30.425 29.8752C30.425 28.2702 31.736 26.8752 33.425 26.8752H40.625ZM36.575 31.5252C38.147 31.5252 39.575 32.9532 39.575 34.5252C39.575 36.1302 38.264 37.5252 36.575 37.5252H29.375C27.77 37.5252 26.375 36.2142 26.375 34.5252C26.3777 34.2434 26.419 33.9632 26.498 33.6927C26.6579 33.1733 26.5244 32.6081 26.149 32.2152C25.7736 31.8223 25.2151 31.6631 24.6889 31.7991C24.1628 31.9351 23.7514 32.3451 23.6135 32.8707C23.4572 33.4084 23.3769 33.9653 23.375 34.5252C23.375 37.9362 26.18 40.5252 29.375 40.5252H36.575C39.986 40.5252 42.575 37.7202 42.575 34.5252C42.575 31.2972 39.803 28.5252 36.575 28.5252H34.475C33.6466 28.5252 32.975 29.1968 32.975 30.0252C32.975 30.8536 33.6466 31.5252 34.475 31.5252H36.575Z" fill="white"/>
<defs>
<linearGradient id="paint0_linear_0_636" x1="0" y1="0.200195" x2="70" y2="70.2002" gradientUnits="userSpaceOnUse">
<stop stop-color="#1A7CE0"/>
<stop offset="0.77" stop-color="#1A7CE0" stop-opacity="0.7"/>
</linearGradient>
</defs>
</svg>
