<svg width="64" height="65" viewBox="0 0 64 65" fill="none" xmlns="http://www.w3.org/2000/svg">
<rect y="0.5625" width="64" height="63.9988" rx="16" fill="white"/>
<path d="M22.2349 32.5562C27.1018 31.5778 31.0202 27.6117 32.0001 22.6189C32.9801 27.6117 36.8976 31.5778 41.7644 32.5562M41.7644 32.5619C36.8976 33.5403 32.9791 37.5063 31.9992 42.4992C31.0194 37.5063 27.1018 33.5403 22.2349 32.5619M16 24.5622V18.0129C16 17.2119 16.6494 16.5625 17.4504 16.5625H24M16 40.5617V47.111C16 47.912 16.6493 48.5613 17.4504 48.5613H24M48 24.5622V18.0129C48 17.2119 47.3507 16.5625 46.5496 16.5625H39.9999M48 40.5617V47.111C48 47.912 47.3507 48.5613 46.5496 48.5613H39.9999" stroke="#1EA9FF" stroke-width="2" stroke-linecap="round" stroke-linejoin="round"/>
</svg>
