<svg width="64" height="67" viewBox="0 0 64 67" fill="none" xmlns="http://www.w3.org/2000/svg">
<rect y="0.5625" width="64" height="65.4537" rx="16" fill="white"/>
<path d="M19.6358 20.9252V50.0162M16 23.8341H48M25.4537 39.1073C25.4537 45.1321 30.3378 50.0162 36.3627 50.0162M25.4537 39.1073C25.4537 33.0824 30.3378 28.1983 36.3627 28.1983M25.4537 39.1073H27.6358M36.3627 50.0162C42.3875 50.0162 47.2716 45.1321 47.2716 39.1073M36.3627 50.0162L36.3627 47.8341M47.2716 39.1073C47.2716 33.0824 42.3875 28.1983 36.3627 28.1983M47.2716 39.1073H45.091M36.3627 28.1983L36.3627 30.3804M29.8179 23.8341V30.3804M42.909 23.8341V30.3804M39.4453 39.1073H36.3627V34.4673M17.4537 18.7446C17.4537 19.9497 18.4307 20.9267 19.6358 20.9267C20.8409 20.9267 21.8179 19.9497 21.8179 18.7446C21.8179 17.5395 20.8409 16.5625 19.6358 16.5625C18.4307 16.5625 17.4537 17.5395 17.4537 18.7446Z" stroke="#1EA9FF" stroke-width="2" stroke-linecap="round" stroke-linejoin="round"/>
</svg>
