<svg width="64" height="68" viewBox="0 0 64 68" fill="none" xmlns="http://www.w3.org/2000/svg">
<rect y="0.5625" width="64" height="66.8662" rx="16" fill="white"/>
<path d="M20.6497 51.4287V41.7204C18.5085 39.7368 17.0152 37.1536 16.3648 34.3082C15.7145 31.4628 15.9373 28.4873 17.0041 25.7704C18.0709 23.0535 19.9322 20.7215 22.3449 19.0788C24.7576 17.4362 27.6096 16.5592 30.5285 16.5625C41.5911 16.5625 43.9791 25.6711 47.9228 35.9016C47.9904 36.0778 48.0141 36.2676 47.9919 36.455C47.9699 36.6423 47.9025 36.8215 47.7958 36.9771C47.6891 37.1325 47.5461 37.2597 47.3792 37.3477C47.2125 37.4357 47.0267 37.4819 46.8381 37.4822H43.8938V42.1311C43.8938 43.3641 43.404 44.5464 42.5322 45.4183C41.6604 46.2901 40.4779 46.7799 39.245 46.7799H36.9206V51.4287M31.0815 20.8929C31.9539 24.7901 31.6628 32.7313 27.0601 34.6694C23.7445 36.0654 19.9626 33.9713 19.9641 30.8885C19.9662 26.3455 27.9218 27.3054 32.9632 28.0845C38.0047 28.8636 38.7839 26.1138 38.0047 24.3263C37.2256 22.5389 31.9668 19.4671 27.6923 21.6399C22.4072 24.3264 23.7201 29.2612 25.1409 31.3236C27.0158 34.0452 31.3781 34.8956 34.2176 33.6112C36.7639 32.4592 36.3911 29.2132 34.5289 28.2201" stroke="#1EA9FF" stroke-width="2" stroke-linecap="round" stroke-linejoin="round"/>
</svg>
