<svg width="614" height="614" viewBox="0 0 614 614" fill="none" xmlns="http://www.w3.org/2000/svg">
<g clip-path="url(#clip0_749_4)">
<path d="M-5.20945e-05 1.83803C1.01503 1.83803 1.83791 1.01515 1.83791 6.99759e-05C1.83791 -1.01501 1.01503 -1.83789 -5.20945e-05 -1.83789C-1.01513 -1.83789 -1.83801 -1.01501 -1.83801 6.99759e-05C-1.83801 1.01515 -1.01513 1.83803 -5.20945e-05 1.83803Z" fill="white"/>
<path d="M34.111 1.83815C35.1261 1.83815 35.949 1.01527 35.949 0.000192046C35.949 -1.01489 35.1261 -1.83777 34.111 -1.83777C33.096 -1.83777 32.2731 -1.01489 32.2731 0.000192046C32.2731 1.01527 33.096 1.83815 34.111 1.83815Z" fill="white"/>
<path d="M68.2221 1.83815C69.2372 1.83815 70.0601 1.01527 70.0601 0.000192046C70.0601 -1.01489 69.2372 -1.83777 68.2221 -1.83777C67.207 -1.83777 66.3842 -1.01489 66.3842 0.000192046C66.3842 1.01527 67.207 1.83815 68.2221 1.83815Z" fill="white"/>
<path d="M102.333 1.83815C103.348 1.83815 104.171 1.01527 104.171 0.000192046C104.171 -1.01489 103.348 -1.83777 102.333 -1.83777C101.318 -1.83777 100.495 -1.01489 100.495 0.000192046C100.495 1.01527 101.318 1.83815 102.333 1.83815Z" fill="white"/>
<path d="M136.444 1.83815C137.459 1.83815 138.282 1.01527 138.282 0.000192046C138.282 -1.01489 137.459 -1.83777 136.444 -1.83777C135.429 -1.83777 134.606 -1.01489 134.606 0.000192046C134.606 1.01527 135.429 1.83815 136.444 1.83815Z" fill="white"/>
<path d="M170.555 1.83815C171.57 1.83815 172.393 1.01527 172.393 0.000192046C172.393 -1.01489 171.57 -1.83777 170.555 -1.83777C169.54 -1.83777 168.717 -1.01489 168.717 0.000192046C168.717 1.01527 169.54 1.83815 170.555 1.83815Z" fill="white"/>
<path d="M204.667 1.83815C205.682 1.83815 206.505 1.01527 206.505 0.000192046C206.505 -1.01489 205.682 -1.83777 204.667 -1.83777C203.652 -1.83777 202.829 -1.01489 202.829 0.000192046C202.829 1.01527 203.652 1.83815 204.667 1.83815Z" fill="white"/>
<path d="M238.778 1.83815C239.793 1.83815 240.616 1.01527 240.616 0.000192046C240.616 -1.01489 239.793 -1.83777 238.778 -1.83777C237.763 -1.83777 236.94 -1.01489 236.94 0.000192046C236.94 1.01527 237.763 1.83815 238.778 1.83815Z" fill="white"/>
<path d="M272.889 1.83815C273.904 1.83815 274.727 1.01527 274.727 0.000192046C274.727 -1.01489 273.904 -1.83777 272.889 -1.83777C271.874 -1.83777 271.051 -1.01489 271.051 0.000192046C271.051 1.01527 271.874 1.83815 272.889 1.83815Z" fill="white"/>
<path d="M307 1.83815C308.015 1.83815 308.838 1.01527 308.838 0.000192046C308.838 -1.01489 308.015 -1.83777 307 -1.83777C305.985 -1.83777 305.162 -1.01489 305.162 0.000192046C305.162 1.01527 305.985 1.83815 307 1.83815Z" fill="white"/>
<path d="M341.111 1.83815C342.126 1.83815 342.949 1.01527 342.949 0.000192046C342.949 -1.01489 342.126 -1.83777 341.111 -1.83777C340.096 -1.83777 339.273 -1.01489 339.273 0.000192046C339.273 1.01527 340.096 1.83815 341.111 1.83815Z" fill="white"/>
<path d="M375.222 1.83815C376.237 1.83815 377.06 1.01527 377.06 0.000192046C377.06 -1.01489 376.237 -1.83777 375.222 -1.83777C374.207 -1.83777 373.384 -1.01489 373.384 0.000192046C373.384 1.01527 374.207 1.83815 375.222 1.83815Z" fill="white"/>
<path d="M409.333 1.83815C410.348 1.83815 411.171 1.01527 411.171 0.000192046C411.171 -1.01489 410.348 -1.83777 409.333 -1.83777C408.318 -1.83777 407.495 -1.01489 407.495 0.000192046C407.495 1.01527 408.318 1.83815 409.333 1.83815Z" fill="white"/>
<path d="M443.444 1.83815C444.459 1.83815 445.282 1.01527 445.282 0.000192046C445.282 -1.01489 444.459 -1.83777 443.444 -1.83777C442.429 -1.83777 441.606 -1.01489 441.606 0.000192046C441.606 1.01527 442.429 1.83815 443.444 1.83815Z" fill="white"/>
<path d="M477.555 1.83815C478.57 1.83815 479.393 1.01527 479.393 0.000192046C479.393 -1.01489 478.57 -1.83777 477.555 -1.83777C476.54 -1.83777 475.717 -1.01489 475.717 0.000192046C475.717 1.01527 476.54 1.83815 477.555 1.83815Z" fill="white"/>
<path d="M511.666 1.83815C512.682 1.83815 513.504 1.01527 513.504 0.000192046C513.504 -1.01489 512.682 -1.83777 511.666 -1.83777C510.651 -1.83777 509.828 -1.01489 509.828 0.000192046C509.828 1.01527 510.651 1.83815 511.666 1.83815Z" fill="white"/>
<path d="M545.778 1.83815C546.793 1.83815 547.616 1.01527 547.616 0.000192046C547.616 -1.01489 546.793 -1.83777 545.778 -1.83777C544.762 -1.83777 543.94 -1.01489 543.94 0.000192046C543.94 1.01527 544.762 1.83815 545.778 1.83815Z" fill="white"/>
<path d="M579.889 1.83815C580.904 1.83815 581.727 1.01527 581.727 0.000192046C581.727 -1.01489 580.904 -1.83777 579.889 -1.83777C578.874 -1.83777 578.051 -1.01489 578.051 0.000192046C578.051 1.01527 578.874 1.83815 579.889 1.83815Z" fill="white"/>
<path d="M614 1.83815C615.015 1.83815 615.838 1.01527 615.838 0.000192046C615.838 -1.01489 615.015 -1.83777 614 -1.83777C612.985 -1.83777 612.162 -1.01489 612.162 0.000192046C612.162 1.01527 612.985 1.83815 614 1.83815Z" fill="white"/>
<path d="M-5.20945e-05 35.9492C1.01503 35.9492 1.83791 35.1264 1.83791 34.1113C1.83791 33.0962 1.01503 32.2733 -5.20945e-05 32.2733C-1.01513 32.2733 -1.83801 33.0962 -1.83801 34.1113C-1.83801 35.1264 -1.01513 35.9492 -5.20945e-05 35.9492Z" fill="white"/>
<path d="M34.111 35.9492C35.1261 35.9492 35.949 35.1264 35.949 34.1113C35.949 33.0962 35.1261 32.2733 34.111 32.2733C33.096 32.2733 32.2731 33.0962 32.2731 34.1113C32.2731 35.1264 33.096 35.9492 34.111 35.9492Z" fill="white"/>
<path d="M68.2221 35.9492C69.2372 35.9492 70.0601 35.1264 70.0601 34.1113C70.0601 33.0962 69.2372 32.2733 68.2221 32.2733C67.207 32.2733 66.3842 33.0962 66.3842 34.1113C66.3842 35.1264 67.207 35.9492 68.2221 35.9492Z" fill="white"/>
<path d="M102.333 35.9492C103.348 35.9492 104.171 35.1264 104.171 34.1113C104.171 33.0962 103.348 32.2733 102.333 32.2733C101.318 32.2733 100.495 33.0962 100.495 34.1113C100.495 35.1264 101.318 35.9492 102.333 35.9492Z" fill="white"/>
<path d="M136.444 35.9492C137.459 35.9492 138.282 35.1264 138.282 34.1113C138.282 33.0962 137.459 32.2733 136.444 32.2733C135.429 32.2733 134.606 33.0962 134.606 34.1113C134.606 35.1264 135.429 35.9492 136.444 35.9492Z" fill="white"/>
<path d="M170.555 35.9492C171.57 35.9492 172.393 35.1264 172.393 34.1113C172.393 33.0962 171.57 32.2733 170.555 32.2733C169.54 32.2733 168.717 33.0962 168.717 34.1113C168.717 35.1264 169.54 35.9492 170.555 35.9492Z" fill="white"/>
<path d="M204.667 35.9492C205.682 35.9492 206.505 35.1264 206.505 34.1113C206.505 33.0962 205.682 32.2733 204.667 32.2733C203.652 32.2733 202.829 33.0962 202.829 34.1113C202.829 35.1264 203.652 35.9492 204.667 35.9492Z" fill="white"/>
<path d="M238.778 35.9492C239.793 35.9492 240.616 35.1264 240.616 34.1113C240.616 33.0962 239.793 32.2733 238.778 32.2733C237.763 32.2733 236.94 33.0962 236.94 34.1113C236.94 35.1264 237.763 35.9492 238.778 35.9492Z" fill="white"/>
<path d="M272.889 35.9492C273.904 35.9492 274.727 35.1264 274.727 34.1113C274.727 33.0962 273.904 32.2733 272.889 32.2733C271.874 32.2733 271.051 33.0962 271.051 34.1113C271.051 35.1264 271.874 35.9492 272.889 35.9492Z" fill="white"/>
<path d="M307 35.9492C308.015 35.9492 308.838 35.1264 308.838 34.1113C308.838 33.0962 308.015 32.2733 307 32.2733C305.985 32.2733 305.162 33.0962 305.162 34.1113C305.162 35.1264 305.985 35.9492 307 35.9492Z" fill="white"/>
<path d="M341.111 35.9492C342.126 35.9492 342.949 35.1264 342.949 34.1113C342.949 33.0962 342.126 32.2733 341.111 32.2733C340.096 32.2733 339.273 33.0962 339.273 34.1113C339.273 35.1264 340.096 35.9492 341.111 35.9492Z" fill="white"/>
<path d="M375.222 35.9492C376.237 35.9492 377.06 35.1264 377.06 34.1113C377.06 33.0962 376.237 32.2733 375.222 32.2733C374.207 32.2733 373.384 33.0962 373.384 34.1113C373.384 35.1264 374.207 35.9492 375.222 35.9492Z" fill="white"/>
<path d="M409.333 35.9492C410.348 35.9492 411.171 35.1264 411.171 34.1113C411.171 33.0962 410.348 32.2733 409.333 32.2733C408.318 32.2733 407.495 33.0962 407.495 34.1113C407.495 35.1264 408.318 35.9492 409.333 35.9492Z" fill="white"/>
<path d="M443.444 35.9492C444.459 35.9492 445.282 35.1264 445.282 34.1113C445.282 33.0962 444.459 32.2733 443.444 32.2733C442.429 32.2733 441.606 33.0962 441.606 34.1113C441.606 35.1264 442.429 35.9492 443.444 35.9492Z" fill="white"/>
<path d="M477.555 35.9492C478.57 35.9492 479.393 35.1264 479.393 34.1113C479.393 33.0962 478.57 32.2733 477.555 32.2733C476.54 32.2733 475.717 33.0962 475.717 34.1113C475.717 35.1264 476.54 35.9492 477.555 35.9492Z" fill="white"/>
<path d="M511.666 35.9492C512.682 35.9492 513.504 35.1264 513.504 34.1113C513.504 33.0962 512.682 32.2733 511.666 32.2733C510.651 32.2733 509.828 33.0962 509.828 34.1113C509.828 35.1264 510.651 35.9492 511.666 35.9492Z" fill="white"/>
<path d="M545.778 35.9492C546.793 35.9492 547.616 35.1264 547.616 34.1113C547.616 33.0962 546.793 32.2733 545.778 32.2733C544.762 32.2733 543.94 33.0962 543.94 34.1113C543.94 35.1264 544.762 35.9492 545.778 35.9492Z" fill="white"/>
<path d="M579.889 35.9492C580.904 35.9492 581.727 35.1264 581.727 34.1113C581.727 33.0962 580.904 32.2733 579.889 32.2733C578.874 32.2733 578.051 33.0962 578.051 34.1113C578.051 35.1264 578.874 35.9492 579.889 35.9492Z" fill="white"/>
<path d="M614 35.9492C615.015 35.9492 615.838 35.1264 615.838 34.1113C615.838 33.0962 615.015 32.2733 614 32.2733C612.985 32.2733 612.162 33.0962 612.162 34.1113C612.162 35.1264 612.985 35.9492 614 35.9492Z" fill="white"/>
<path d="M-5.20945e-05 70.0603C1.01503 70.0603 1.83791 69.2374 1.83791 68.2224C1.83791 67.2073 1.01503 66.3844 -5.20945e-05 66.3844C-1.01513 66.3844 -1.83801 67.2073 -1.83801 68.2224C-1.83801 69.2374 -1.01513 70.0603 -5.20945e-05 70.0603Z" fill="white"/>
<path d="M34.111 70.0603C35.1261 70.0603 35.949 69.2374 35.949 68.2224C35.949 67.2073 35.1261 66.3844 34.111 66.3844C33.096 66.3844 32.2731 67.2073 32.2731 68.2224C32.2731 69.2374 33.096 70.0603 34.111 70.0603Z" fill="white"/>
<path d="M68.2221 70.0603C69.2372 70.0603 70.0601 69.2374 70.0601 68.2224C70.0601 67.2073 69.2372 66.3844 68.2221 66.3844C67.207 66.3844 66.3842 67.2073 66.3842 68.2224C66.3842 69.2374 67.207 70.0603 68.2221 70.0603Z" fill="white"/>
<path d="M102.333 70.0603C103.348 70.0603 104.171 69.2374 104.171 68.2224C104.171 67.2073 103.348 66.3844 102.333 66.3844C101.318 66.3844 100.495 67.2073 100.495 68.2224C100.495 69.2374 101.318 70.0603 102.333 70.0603Z" fill="white"/>
<path d="M136.444 70.0603C137.459 70.0603 138.282 69.2374 138.282 68.2224C138.282 67.2073 137.459 66.3844 136.444 66.3844C135.429 66.3844 134.606 67.2073 134.606 68.2224C134.606 69.2374 135.429 70.0603 136.444 70.0603Z" fill="white"/>
<path d="M170.555 70.0603C171.57 70.0603 172.393 69.2374 172.393 68.2224C172.393 67.2073 171.57 66.3844 170.555 66.3844C169.54 66.3844 168.717 67.2073 168.717 68.2224C168.717 69.2374 169.54 70.0603 170.555 70.0603Z" fill="white"/>
<path d="M204.667 70.0603C205.682 70.0603 206.505 69.2374 206.505 68.2224C206.505 67.2073 205.682 66.3844 204.667 66.3844C203.652 66.3844 202.829 67.2073 202.829 68.2224C202.829 69.2374 203.652 70.0603 204.667 70.0603Z" fill="white"/>
<path d="M238.778 70.0603C239.793 70.0603 240.616 69.2374 240.616 68.2224C240.616 67.2073 239.793 66.3844 238.778 66.3844C237.763 66.3844 236.94 67.2073 236.94 68.2224C236.94 69.2374 237.763 70.0603 238.778 70.0603Z" fill="white"/>
<path d="M272.889 70.0603C273.904 70.0603 274.727 69.2374 274.727 68.2224C274.727 67.2073 273.904 66.3844 272.889 66.3844C271.874 66.3844 271.051 67.2073 271.051 68.2224C271.051 69.2374 271.874 70.0603 272.889 70.0603Z" fill="white"/>
<path d="M307 70.0603C308.015 70.0603 308.838 69.2374 308.838 68.2224C308.838 67.2073 308.015 66.3844 307 66.3844C305.985 66.3844 305.162 67.2073 305.162 68.2224C305.162 69.2374 305.985 70.0603 307 70.0603Z" fill="white"/>
<path d="M341.111 70.0603C342.126 70.0603 342.949 69.2374 342.949 68.2224C342.949 67.2073 342.126 66.3844 341.111 66.3844C340.096 66.3844 339.273 67.2073 339.273 68.2224C339.273 69.2374 340.096 70.0603 341.111 70.0603Z" fill="white"/>
<path d="M375.222 70.0603C376.237 70.0603 377.06 69.2374 377.06 68.2224C377.06 67.2073 376.237 66.3844 375.222 66.3844C374.207 66.3844 373.384 67.2073 373.384 68.2224C373.384 69.2374 374.207 70.0603 375.222 70.0603Z" fill="white"/>
<path d="M409.333 70.0603C410.348 70.0603 411.171 69.2374 411.171 68.2224C411.171 67.2073 410.348 66.3844 409.333 66.3844C408.318 66.3844 407.495 67.2073 407.495 68.2224C407.495 69.2374 408.318 70.0603 409.333 70.0603Z" fill="white"/>
<path d="M443.444 70.0603C444.459 70.0603 445.282 69.2374 445.282 68.2224C445.282 67.2073 444.459 66.3844 443.444 66.3844C442.429 66.3844 441.606 67.2073 441.606 68.2224C441.606 69.2374 442.429 70.0603 443.444 70.0603Z" fill="white"/>
<path d="M477.555 70.0603C478.57 70.0603 479.393 69.2374 479.393 68.2224C479.393 67.2073 478.57 66.3844 477.555 66.3844C476.54 66.3844 475.717 67.2073 475.717 68.2224C475.717 69.2374 476.54 70.0603 477.555 70.0603Z" fill="white"/>
<path d="M511.666 70.0603C512.682 70.0603 513.504 69.2374 513.504 68.2224C513.504 67.2073 512.682 66.3844 511.666 66.3844C510.651 66.3844 509.828 67.2073 509.828 68.2224C509.828 69.2374 510.651 70.0603 511.666 70.0603Z" fill="white"/>
<path d="M545.778 70.0603C546.793 70.0603 547.616 69.2374 547.616 68.2224C547.616 67.2073 546.793 66.3844 545.778 66.3844C544.762 66.3844 543.94 67.2073 543.94 68.2224C543.94 69.2374 544.762 70.0603 545.778 70.0603Z" fill="white"/>
<path d="M579.889 70.0603C580.904 70.0603 581.727 69.2374 581.727 68.2224C581.727 67.2073 580.904 66.3844 579.889 66.3844C578.874 66.3844 578.051 67.2073 578.051 68.2224C578.051 69.2374 578.874 70.0603 579.889 70.0603Z" fill="white"/>
<path d="M614 70.0603C615.015 70.0603 615.838 69.2374 615.838 68.2224C615.838 67.2073 615.015 66.3844 614 66.3844C612.985 66.3844 612.162 67.2073 612.162 68.2224C612.162 69.2374 612.985 70.0603 614 70.0603Z" fill="white"/>
<path d="M-5.20945e-05 104.172C1.01503 104.172 1.83791 103.349 1.83791 102.334C1.83791 101.318 1.01503 100.496 -5.20945e-05 100.496C-1.01513 100.496 -1.83801 101.318 -1.83801 102.334C-1.83801 103.349 -1.01513 104.172 -5.20945e-05 104.172Z" fill="white"/>
<path d="M34.111 104.172C35.1261 104.172 35.949 103.349 35.949 102.334C35.949 101.318 35.1261 100.496 34.111 100.496C33.096 100.496 32.2731 101.318 32.2731 102.334C32.2731 103.349 33.096 104.172 34.111 104.172Z" fill="white"/>
<path d="M68.2221 104.172C69.2372 104.172 70.0601 103.349 70.0601 102.334C70.0601 101.318 69.2372 100.496 68.2221 100.496C67.207 100.496 66.3842 101.318 66.3842 102.334C66.3842 103.349 67.207 104.172 68.2221 104.172Z" fill="white"/>
<path d="M102.333 104.172C103.348 104.172 104.171 103.349 104.171 102.334C104.171 101.318 103.348 100.496 102.333 100.496C101.318 100.496 100.495 101.318 100.495 102.334C100.495 103.349 101.318 104.172 102.333 104.172Z" fill="white"/>
<path d="M136.444 104.172C137.459 104.172 138.282 103.349 138.282 102.334C138.282 101.318 137.459 100.496 136.444 100.496C135.429 100.496 134.606 101.318 134.606 102.334C134.606 103.349 135.429 104.172 136.444 104.172Z" fill="white"/>
<path d="M170.555 104.172C171.57 104.172 172.393 103.349 172.393 102.334C172.393 101.318 171.57 100.496 170.555 100.496C169.54 100.496 168.717 101.318 168.717 102.334C168.717 103.349 169.54 104.172 170.555 104.172Z" fill="white"/>
<path d="M204.667 104.172C205.682 104.172 206.505 103.349 206.505 102.334C206.505 101.318 205.682 100.496 204.667 100.496C203.652 100.496 202.829 101.318 202.829 102.334C202.829 103.349 203.652 104.172 204.667 104.172Z" fill="white"/>
<path d="M238.778 104.172C239.793 104.172 240.616 103.349 240.616 102.334C240.616 101.318 239.793 100.496 238.778 100.496C237.763 100.496 236.94 101.318 236.94 102.334C236.94 103.349 237.763 104.172 238.778 104.172Z" fill="white"/>
<path d="M272.889 104.172C273.904 104.172 274.727 103.349 274.727 102.334C274.727 101.318 273.904 100.496 272.889 100.496C271.874 100.496 271.051 101.318 271.051 102.334C271.051 103.349 271.874 104.172 272.889 104.172Z" fill="white"/>
<path d="M307 104.172C308.015 104.172 308.838 103.349 308.838 102.334C308.838 101.318 308.015 100.496 307 100.496C305.985 100.496 305.162 101.318 305.162 102.334C305.162 103.349 305.985 104.172 307 104.172Z" fill="white"/>
<path d="M341.111 104.172C342.126 104.172 342.949 103.349 342.949 102.334C342.949 101.318 342.126 100.496 341.111 100.496C340.096 100.496 339.273 101.318 339.273 102.334C339.273 103.349 340.096 104.172 341.111 104.172Z" fill="white"/>
<path d="M375.222 104.172C376.237 104.172 377.06 103.349 377.06 102.334C377.06 101.318 376.237 100.496 375.222 100.496C374.207 100.496 373.384 101.318 373.384 102.334C373.384 103.349 374.207 104.172 375.222 104.172Z" fill="white"/>
<path d="M409.333 104.172C410.348 104.172 411.171 103.349 411.171 102.334C411.171 101.318 410.348 100.496 409.333 100.496C408.318 100.496 407.495 101.318 407.495 102.334C407.495 103.349 408.318 104.172 409.333 104.172Z" fill="white"/>
<path d="M443.444 104.172C444.459 104.172 445.282 103.349 445.282 102.334C445.282 101.318 444.459 100.496 443.444 100.496C442.429 100.496 441.606 101.318 441.606 102.334C441.606 103.349 442.429 104.172 443.444 104.172Z" fill="white"/>
<path d="M477.555 104.172C478.57 104.172 479.393 103.349 479.393 102.334C479.393 101.318 478.57 100.496 477.555 100.496C476.54 100.496 475.717 101.318 475.717 102.334C475.717 103.349 476.54 104.172 477.555 104.172Z" fill="white"/>
<path d="M511.666 104.172C512.682 104.172 513.504 103.349 513.504 102.334C513.504 101.318 512.682 100.496 511.666 100.496C510.651 100.496 509.828 101.318 509.828 102.334C509.828 103.349 510.651 104.172 511.666 104.172Z" fill="white"/>
<path d="M545.778 104.172C546.793 104.172 547.616 103.349 547.616 102.334C547.616 101.318 546.793 100.496 545.778 100.496C544.762 100.496 543.94 101.318 543.94 102.334C543.94 103.349 544.762 104.172 545.778 104.172Z" fill="white"/>
<path d="M579.889 104.172C580.904 104.172 581.727 103.349 581.727 102.334C581.727 101.318 580.904 100.496 579.889 100.496C578.874 100.496 578.051 101.318 578.051 102.334C578.051 103.349 578.874 104.172 579.889 104.172Z" fill="white"/>
<path d="M614 104.172C615.015 104.172 615.838 103.349 615.838 102.334C615.838 101.318 615.015 100.496 614 100.496C612.985 100.496 612.162 101.318 612.162 102.334C612.162 103.349 612.985 104.172 614 104.172Z" fill="white"/>
<path d="M-5.20945e-05 138.283C1.01503 138.283 1.83791 137.46 1.83791 136.445C1.83791 135.43 1.01503 134.607 -5.20945e-05 134.607C-1.01513 134.607 -1.83801 135.43 -1.83801 136.445C-1.83801 137.46 -1.01513 138.283 -5.20945e-05 138.283Z" fill="white"/>
<path d="M34.111 138.283C35.1261 138.283 35.949 137.46 35.949 136.445C35.949 135.43 35.1261 134.607 34.111 134.607C33.096 134.607 32.2731 135.43 32.2731 136.445C32.2731 137.46 33.096 138.283 34.111 138.283Z" fill="white"/>
<path d="M68.2221 138.283C69.2372 138.283 70.0601 137.46 70.0601 136.445C70.0601 135.43 69.2372 134.607 68.2221 134.607C67.207 134.607 66.3842 135.43 66.3842 136.445C66.3842 137.46 67.207 138.283 68.2221 138.283Z" fill="white"/>
<path d="M102.333 138.283C103.348 138.283 104.171 137.46 104.171 136.445C104.171 135.43 103.348 134.607 102.333 134.607C101.318 134.607 100.495 135.43 100.495 136.445C100.495 137.46 101.318 138.283 102.333 138.283Z" fill="white"/>
<path d="M136.444 138.283C137.459 138.283 138.282 137.46 138.282 136.445C138.282 135.43 137.459 134.607 136.444 134.607C135.429 134.607 134.606 135.43 134.606 136.445C134.606 137.46 135.429 138.283 136.444 138.283Z" fill="white"/>
<path d="M170.555 138.283C171.57 138.283 172.393 137.46 172.393 136.445C172.393 135.43 171.57 134.607 170.555 134.607C169.54 134.607 168.717 135.43 168.717 136.445C168.717 137.46 169.54 138.283 170.555 138.283Z" fill="white"/>
<path d="M204.667 138.283C205.682 138.283 206.505 137.46 206.505 136.445C206.505 135.43 205.682 134.607 204.667 134.607C203.652 134.607 202.829 135.43 202.829 136.445C202.829 137.46 203.652 138.283 204.667 138.283Z" fill="white"/>
<path d="M238.778 138.283C239.793 138.283 240.616 137.46 240.616 136.445C240.616 135.43 239.793 134.607 238.778 134.607C237.763 134.607 236.94 135.43 236.94 136.445C236.94 137.46 237.763 138.283 238.778 138.283Z" fill="white"/>
<path d="M272.889 138.283C273.904 138.283 274.727 137.46 274.727 136.445C274.727 135.43 273.904 134.607 272.889 134.607C271.874 134.607 271.051 135.43 271.051 136.445C271.051 137.46 271.874 138.283 272.889 138.283Z" fill="white"/>
<path d="M307 138.283C308.015 138.283 308.838 137.46 308.838 136.445C308.838 135.43 308.015 134.607 307 134.607C305.985 134.607 305.162 135.43 305.162 136.445C305.162 137.46 305.985 138.283 307 138.283Z" fill="white"/>
<path d="M341.111 138.283C342.126 138.283 342.949 137.46 342.949 136.445C342.949 135.43 342.126 134.607 341.111 134.607C340.096 134.607 339.273 135.43 339.273 136.445C339.273 137.46 340.096 138.283 341.111 138.283Z" fill="white"/>
<path d="M375.222 138.283C376.237 138.283 377.06 137.46 377.06 136.445C377.06 135.43 376.237 134.607 375.222 134.607C374.207 134.607 373.384 135.43 373.384 136.445C373.384 137.46 374.207 138.283 375.222 138.283Z" fill="white"/>
<path d="M409.333 138.283C410.348 138.283 411.171 137.46 411.171 136.445C411.171 135.43 410.348 134.607 409.333 134.607C408.318 134.607 407.495 135.43 407.495 136.445C407.495 137.46 408.318 138.283 409.333 138.283Z" fill="white"/>
<path d="M443.444 138.283C444.459 138.283 445.282 137.46 445.282 136.445C445.282 135.43 444.459 134.607 443.444 134.607C442.429 134.607 441.606 135.43 441.606 136.445C441.606 137.46 442.429 138.283 443.444 138.283Z" fill="white"/>
<path d="M477.555 138.283C478.57 138.283 479.393 137.46 479.393 136.445C479.393 135.43 478.57 134.607 477.555 134.607C476.54 134.607 475.717 135.43 475.717 136.445C475.717 137.46 476.54 138.283 477.555 138.283Z" fill="white"/>
<path d="M511.666 138.283C512.682 138.283 513.504 137.46 513.504 136.445C513.504 135.43 512.682 134.607 511.666 134.607C510.651 134.607 509.828 135.43 509.828 136.445C509.828 137.46 510.651 138.283 511.666 138.283Z" fill="white"/>
<path d="M545.778 138.283C546.793 138.283 547.616 137.46 547.616 136.445C547.616 135.43 546.793 134.607 545.778 134.607C544.762 134.607 543.94 135.43 543.94 136.445C543.94 137.46 544.762 138.283 545.778 138.283Z" fill="white"/>
<path d="M579.889 138.283C580.904 138.283 581.727 137.46 581.727 136.445C581.727 135.43 580.904 134.607 579.889 134.607C578.874 134.607 578.051 135.43 578.051 136.445C578.051 137.46 578.874 138.283 579.889 138.283Z" fill="white"/>
<path d="M614 138.283C615.015 138.283 615.838 137.46 615.838 136.445C615.838 135.43 615.015 134.607 614 134.607C612.985 134.607 612.162 135.43 612.162 136.445C612.162 137.46 612.985 138.283 614 138.283Z" fill="white"/>
<path d="M-5.20945e-05 172.394C1.01503 172.394 1.83791 171.571 1.83791 170.556C1.83791 169.541 1.01503 168.718 -5.20945e-05 168.718C-1.01513 168.718 -1.83801 169.541 -1.83801 170.556C-1.83801 171.571 -1.01513 172.394 -5.20945e-05 172.394Z" fill="white"/>
<path d="M34.111 172.394C35.1261 172.394 35.949 171.571 35.949 170.556C35.949 169.541 35.1261 168.718 34.111 168.718C33.096 168.718 32.2731 169.541 32.2731 170.556C32.2731 171.571 33.096 172.394 34.111 172.394Z" fill="white"/>
<path d="M68.2221 172.394C69.2372 172.394 70.0601 171.571 70.0601 170.556C70.0601 169.541 69.2372 168.718 68.2221 168.718C67.207 168.718 66.3842 169.541 66.3842 170.556C66.3842 171.571 67.207 172.394 68.2221 172.394Z" fill="white"/>
<path d="M102.333 172.394C103.348 172.394 104.171 171.571 104.171 170.556C104.171 169.541 103.348 168.718 102.333 168.718C101.318 168.718 100.495 169.541 100.495 170.556C100.495 171.571 101.318 172.394 102.333 172.394Z" fill="white"/>
<path d="M136.444 172.394C137.459 172.394 138.282 171.571 138.282 170.556C138.282 169.541 137.459 168.718 136.444 168.718C135.429 168.718 134.606 169.541 134.606 170.556C134.606 171.571 135.429 172.394 136.444 172.394Z" fill="white"/>
<path d="M170.555 172.394C171.57 172.394 172.393 171.571 172.393 170.556C172.393 169.541 171.57 168.718 170.555 168.718C169.54 168.718 168.717 169.541 168.717 170.556C168.717 171.571 169.54 172.394 170.555 172.394Z" fill="white"/>
<path d="M204.667 172.394C205.682 172.394 206.505 171.571 206.505 170.556C206.505 169.541 205.682 168.718 204.667 168.718C203.652 168.718 202.829 169.541 202.829 170.556C202.829 171.571 203.652 172.394 204.667 172.394Z" fill="white"/>
<path d="M238.778 172.394C239.793 172.394 240.616 171.571 240.616 170.556C240.616 169.541 239.793 168.718 238.778 168.718C237.763 168.718 236.94 169.541 236.94 170.556C236.94 171.571 237.763 172.394 238.778 172.394Z" fill="white"/>
<path d="M272.889 172.394C273.904 172.394 274.727 171.571 274.727 170.556C274.727 169.541 273.904 168.718 272.889 168.718C271.874 168.718 271.051 169.541 271.051 170.556C271.051 171.571 271.874 172.394 272.889 172.394Z" fill="white"/>
<path d="M307 172.394C308.015 172.394 308.838 171.571 308.838 170.556C308.838 169.541 308.015 168.718 307 168.718C305.985 168.718 305.162 169.541 305.162 170.556C305.162 171.571 305.985 172.394 307 172.394Z" fill="white"/>
<path d="M341.111 172.394C342.126 172.394 342.949 171.571 342.949 170.556C342.949 169.541 342.126 168.718 341.111 168.718C340.096 168.718 339.273 169.541 339.273 170.556C339.273 171.571 340.096 172.394 341.111 172.394Z" fill="white"/>
<path d="M375.222 172.394C376.237 172.394 377.06 171.571 377.06 170.556C377.06 169.541 376.237 168.718 375.222 168.718C374.207 168.718 373.384 169.541 373.384 170.556C373.384 171.571 374.207 172.394 375.222 172.394Z" fill="white"/>
<path d="M409.333 172.394C410.348 172.394 411.171 171.571 411.171 170.556C411.171 169.541 410.348 168.718 409.333 168.718C408.318 168.718 407.495 169.541 407.495 170.556C407.495 171.571 408.318 172.394 409.333 172.394Z" fill="white"/>
<path d="M443.444 172.394C444.459 172.394 445.282 171.571 445.282 170.556C445.282 169.541 444.459 168.718 443.444 168.718C442.429 168.718 441.606 169.541 441.606 170.556C441.606 171.571 442.429 172.394 443.444 172.394Z" fill="white"/>
<path d="M477.555 172.394C478.57 172.394 479.393 171.571 479.393 170.556C479.393 169.541 478.57 168.718 477.555 168.718C476.54 168.718 475.717 169.541 475.717 170.556C475.717 171.571 476.54 172.394 477.555 172.394Z" fill="white"/>
<path d="M511.666 172.394C512.682 172.394 513.504 171.571 513.504 170.556C513.504 169.541 512.682 168.718 511.666 168.718C510.651 168.718 509.828 169.541 509.828 170.556C509.828 171.571 510.651 172.394 511.666 172.394Z" fill="white"/>
<path d="M545.778 172.394C546.793 172.394 547.616 171.571 547.616 170.556C547.616 169.541 546.793 168.718 545.778 168.718C544.762 168.718 543.94 169.541 543.94 170.556C543.94 171.571 544.762 172.394 545.778 172.394Z" fill="white"/>
<path d="M579.889 172.394C580.904 172.394 581.727 171.571 581.727 170.556C581.727 169.541 580.904 168.718 579.889 168.718C578.874 168.718 578.051 169.541 578.051 170.556C578.051 171.571 578.874 172.394 579.889 172.394Z" fill="white"/>
<path d="M614 172.394C615.015 172.394 615.838 171.571 615.838 170.556C615.838 169.541 615.015 168.718 614 168.718C612.985 168.718 612.162 169.541 612.162 170.556C612.162 171.571 612.985 172.394 614 172.394Z" fill="white"/>
<path d="M-5.20945e-05 206.505C1.01503 206.505 1.83791 205.682 1.83791 204.667C1.83791 203.652 1.01503 202.829 -5.20945e-05 202.829C-1.01513 202.829 -1.83801 203.652 -1.83801 204.667C-1.83801 205.682 -1.01513 206.505 -5.20945e-05 206.505Z" fill="white"/>
<path d="M34.111 206.505C35.1261 206.505 35.949 205.682 35.949 204.667C35.949 203.652 35.1261 202.829 34.111 202.829C33.096 202.829 32.2731 203.652 32.2731 204.667C32.2731 205.682 33.096 206.505 34.111 206.505Z" fill="white"/>
<path d="M68.2221 206.505C69.2372 206.505 70.0601 205.682 70.0601 204.667C70.0601 203.652 69.2372 202.829 68.2221 202.829C67.207 202.829 66.3842 203.652 66.3842 204.667C66.3842 205.682 67.207 206.505 68.2221 206.505Z" fill="white"/>
<path d="M102.333 206.505C103.348 206.505 104.171 205.682 104.171 204.667C104.171 203.652 103.348 202.829 102.333 202.829C101.318 202.829 100.495 203.652 100.495 204.667C100.495 205.682 101.318 206.505 102.333 206.505Z" fill="white"/>
<path d="M136.444 206.505C137.459 206.505 138.282 205.682 138.282 204.667C138.282 203.652 137.459 202.829 136.444 202.829C135.429 202.829 134.606 203.652 134.606 204.667C134.606 205.682 135.429 206.505 136.444 206.505Z" fill="white"/>
<path d="M170.555 206.505C171.57 206.505 172.393 205.682 172.393 204.667C172.393 203.652 171.57 202.829 170.555 202.829C169.54 202.829 168.717 203.652 168.717 204.667C168.717 205.682 169.54 206.505 170.555 206.505Z" fill="white"/>
<path d="M204.667 206.505C205.682 206.505 206.505 205.682 206.505 204.667C206.505 203.652 205.682 202.829 204.667 202.829C203.652 202.829 202.829 203.652 202.829 204.667C202.829 205.682 203.652 206.505 204.667 206.505Z" fill="white"/>
<path d="M238.778 206.505C239.793 206.505 240.616 205.682 240.616 204.667C240.616 203.652 239.793 202.829 238.778 202.829C237.763 202.829 236.94 203.652 236.94 204.667C236.94 205.682 237.763 206.505 238.778 206.505Z" fill="white"/>
<path d="M272.889 206.505C273.904 206.505 274.727 205.682 274.727 204.667C274.727 203.652 273.904 202.829 272.889 202.829C271.874 202.829 271.051 203.652 271.051 204.667C271.051 205.682 271.874 206.505 272.889 206.505Z" fill="white"/>
<path d="M307 206.505C308.015 206.505 308.838 205.682 308.838 204.667C308.838 203.652 308.015 202.829 307 202.829C305.985 202.829 305.162 203.652 305.162 204.667C305.162 205.682 305.985 206.505 307 206.505Z" fill="white"/>
<path d="M341.111 206.505C342.126 206.505 342.949 205.682 342.949 204.667C342.949 203.652 342.126 202.829 341.111 202.829C340.096 202.829 339.273 203.652 339.273 204.667C339.273 205.682 340.096 206.505 341.111 206.505Z" fill="white"/>
<path d="M375.222 206.505C376.237 206.505 377.06 205.682 377.06 204.667C377.06 203.652 376.237 202.829 375.222 202.829C374.207 202.829 373.384 203.652 373.384 204.667C373.384 205.682 374.207 206.505 375.222 206.505Z" fill="white"/>
<path d="M409.333 206.505C410.348 206.505 411.171 205.682 411.171 204.667C411.171 203.652 410.348 202.829 409.333 202.829C408.318 202.829 407.495 203.652 407.495 204.667C407.495 205.682 408.318 206.505 409.333 206.505Z" fill="white"/>
<path d="M443.444 206.505C444.459 206.505 445.282 205.682 445.282 204.667C445.282 203.652 444.459 202.829 443.444 202.829C442.429 202.829 441.606 203.652 441.606 204.667C441.606 205.682 442.429 206.505 443.444 206.505Z" fill="white"/>
<path d="M477.555 206.505C478.57 206.505 479.393 205.682 479.393 204.667C479.393 203.652 478.57 202.829 477.555 202.829C476.54 202.829 475.717 203.652 475.717 204.667C475.717 205.682 476.54 206.505 477.555 206.505Z" fill="white"/>
<path d="M511.666 206.505C512.682 206.505 513.504 205.682 513.504 204.667C513.504 203.652 512.682 202.829 511.666 202.829C510.651 202.829 509.828 203.652 509.828 204.667C509.828 205.682 510.651 206.505 511.666 206.505Z" fill="white"/>
<path d="M545.778 206.505C546.793 206.505 547.616 205.682 547.616 204.667C547.616 203.652 546.793 202.829 545.778 202.829C544.762 202.829 543.94 203.652 543.94 204.667C543.94 205.682 544.762 206.505 545.778 206.505Z" fill="white"/>
<path d="M579.889 206.505C580.904 206.505 581.727 205.682 581.727 204.667C581.727 203.652 580.904 202.829 579.889 202.829C578.874 202.829 578.051 203.652 578.051 204.667C578.051 205.682 578.874 206.505 579.889 206.505Z" fill="white"/>
<path d="M614 206.505C615.015 206.505 615.838 205.682 615.838 204.667C615.838 203.652 615.015 202.829 614 202.829C612.985 202.829 612.162 203.652 612.162 204.667C612.162 205.682 612.985 206.505 614 206.505Z" fill="white"/>
<path d="M-5.20945e-05 240.616C1.01503 240.616 1.83791 239.793 1.83791 238.778C1.83791 237.763 1.01503 236.94 -5.20945e-05 236.94C-1.01513 236.94 -1.83801 237.763 -1.83801 238.778C-1.83801 239.793 -1.01513 240.616 -5.20945e-05 240.616Z" fill="white"/>
<path d="M34.111 240.616C35.1261 240.616 35.949 239.793 35.949 238.778C35.949 237.763 35.1261 236.94 34.111 236.94C33.096 236.94 32.2731 237.763 32.2731 238.778C32.2731 239.793 33.096 240.616 34.111 240.616Z" fill="white"/>
<path d="M68.2221 240.616C69.2372 240.616 70.0601 239.793 70.0601 238.778C70.0601 237.763 69.2372 236.94 68.2221 236.94C67.207 236.94 66.3842 237.763 66.3842 238.778C66.3842 239.793 67.207 240.616 68.2221 240.616Z" fill="white"/>
<path d="M102.333 240.616C103.348 240.616 104.171 239.793 104.171 238.778C104.171 237.763 103.348 236.94 102.333 236.94C101.318 236.94 100.495 237.763 100.495 238.778C100.495 239.793 101.318 240.616 102.333 240.616Z" fill="white"/>
<path d="M136.444 240.616C137.459 240.616 138.282 239.793 138.282 238.778C138.282 237.763 137.459 236.94 136.444 236.94C135.429 236.94 134.606 237.763 134.606 238.778C134.606 239.793 135.429 240.616 136.444 240.616Z" fill="white"/>
<path d="M170.555 240.616C171.57 240.616 172.393 239.793 172.393 238.778C172.393 237.763 171.57 236.94 170.555 236.94C169.54 236.94 168.717 237.763 168.717 238.778C168.717 239.793 169.54 240.616 170.555 240.616Z" fill="white"/>
<path d="M204.667 240.616C205.682 240.616 206.505 239.793 206.505 238.778C206.505 237.763 205.682 236.94 204.667 236.94C203.652 236.94 202.829 237.763 202.829 238.778C202.829 239.793 203.652 240.616 204.667 240.616Z" fill="white"/>
<path d="M238.778 240.616C239.793 240.616 240.616 239.793 240.616 238.778C240.616 237.763 239.793 236.94 238.778 236.94C237.763 236.94 236.94 237.763 236.94 238.778C236.94 239.793 237.763 240.616 238.778 240.616Z" fill="white"/>
<path d="M272.889 240.616C273.904 240.616 274.727 239.793 274.727 238.778C274.727 237.763 273.904 236.94 272.889 236.94C271.874 236.94 271.051 237.763 271.051 238.778C271.051 239.793 271.874 240.616 272.889 240.616Z" fill="white"/>
<path d="M307 240.616C308.015 240.616 308.838 239.793 308.838 238.778C308.838 237.763 308.015 236.94 307 236.94C305.985 236.94 305.162 237.763 305.162 238.778C305.162 239.793 305.985 240.616 307 240.616Z" fill="white"/>
<path d="M341.111 240.616C342.126 240.616 342.949 239.793 342.949 238.778C342.949 237.763 342.126 236.94 341.111 236.94C340.096 236.94 339.273 237.763 339.273 238.778C339.273 239.793 340.096 240.616 341.111 240.616Z" fill="white"/>
<path d="M375.222 240.616C376.237 240.616 377.06 239.793 377.06 238.778C377.06 237.763 376.237 236.94 375.222 236.94C374.207 236.94 373.384 237.763 373.384 238.778C373.384 239.793 374.207 240.616 375.222 240.616Z" fill="white"/>
<path d="M409.333 240.616C410.348 240.616 411.171 239.793 411.171 238.778C411.171 237.763 410.348 236.94 409.333 236.94C408.318 236.94 407.495 237.763 407.495 238.778C407.495 239.793 408.318 240.616 409.333 240.616Z" fill="white"/>
<path d="M443.444 240.616C444.459 240.616 445.282 239.793 445.282 238.778C445.282 237.763 444.459 236.94 443.444 236.94C442.429 236.94 441.606 237.763 441.606 238.778C441.606 239.793 442.429 240.616 443.444 240.616Z" fill="white"/>
<path d="M477.555 240.616C478.57 240.616 479.393 239.793 479.393 238.778C479.393 237.763 478.57 236.94 477.555 236.94C476.54 236.94 475.717 237.763 475.717 238.778C475.717 239.793 476.54 240.616 477.555 240.616Z" fill="white"/>
<path d="M511.666 240.616C512.682 240.616 513.504 239.793 513.504 238.778C513.504 237.763 512.682 236.94 511.666 236.94C510.651 236.94 509.828 237.763 509.828 238.778C509.828 239.793 510.651 240.616 511.666 240.616Z" fill="white"/>
<path d="M545.778 240.616C546.793 240.616 547.616 239.793 547.616 238.778C547.616 237.763 546.793 236.94 545.778 236.94C544.762 236.94 543.94 237.763 543.94 238.778C543.94 239.793 544.762 240.616 545.778 240.616Z" fill="white"/>
<path d="M579.889 240.616C580.904 240.616 581.727 239.793 581.727 238.778C581.727 237.763 580.904 236.94 579.889 236.94C578.874 236.94 578.051 237.763 578.051 238.778C578.051 239.793 578.874 240.616 579.889 240.616Z" fill="white"/>
<path d="M614 240.616C615.015 240.616 615.838 239.793 615.838 238.778C615.838 237.763 615.015 236.94 614 236.94C612.985 236.94 612.162 237.763 612.162 238.778C612.162 239.793 612.985 240.616 614 240.616Z" fill="white"/>
<path d="M-5.20945e-05 274.727C1.01503 274.727 1.83791 273.904 1.83791 272.889C1.83791 271.874 1.01503 271.051 -5.20945e-05 271.051C-1.01513 271.051 -1.83801 271.874 -1.83801 272.889C-1.83801 273.904 -1.01513 274.727 -5.20945e-05 274.727Z" fill="white"/>
<path d="M34.111 274.727C35.1261 274.727 35.949 273.904 35.949 272.889C35.949 271.874 35.1261 271.051 34.111 271.051C33.096 271.051 32.2731 271.874 32.2731 272.889C32.2731 273.904 33.096 274.727 34.111 274.727Z" fill="white"/>
<path d="M68.2221 274.727C69.2372 274.727 70.0601 273.904 70.0601 272.889C70.0601 271.874 69.2372 271.051 68.2221 271.051C67.207 271.051 66.3842 271.874 66.3842 272.889C66.3842 273.904 67.207 274.727 68.2221 274.727Z" fill="white"/>
<path d="M102.333 274.727C103.348 274.727 104.171 273.904 104.171 272.889C104.171 271.874 103.348 271.051 102.333 271.051C101.318 271.051 100.495 271.874 100.495 272.889C100.495 273.904 101.318 274.727 102.333 274.727Z" fill="white"/>
<path d="M136.444 274.727C137.459 274.727 138.282 273.904 138.282 272.889C138.282 271.874 137.459 271.051 136.444 271.051C135.429 271.051 134.606 271.874 134.606 272.889C134.606 273.904 135.429 274.727 136.444 274.727Z" fill="white"/>
<path d="M170.555 274.727C171.57 274.727 172.393 273.904 172.393 272.889C172.393 271.874 171.57 271.051 170.555 271.051C169.54 271.051 168.717 271.874 168.717 272.889C168.717 273.904 169.54 274.727 170.555 274.727Z" fill="white"/>
<path d="M204.667 274.727C205.682 274.727 206.505 273.904 206.505 272.889C206.505 271.874 205.682 271.051 204.667 271.051C203.652 271.051 202.829 271.874 202.829 272.889C202.829 273.904 203.652 274.727 204.667 274.727Z" fill="white"/>
<path d="M238.778 274.727C239.793 274.727 240.616 273.904 240.616 272.889C240.616 271.874 239.793 271.051 238.778 271.051C237.763 271.051 236.94 271.874 236.94 272.889C236.94 273.904 237.763 274.727 238.778 274.727Z" fill="white"/>
<path d="M272.889 274.727C273.904 274.727 274.727 273.904 274.727 272.889C274.727 271.874 273.904 271.051 272.889 271.051C271.874 271.051 271.051 271.874 271.051 272.889C271.051 273.904 271.874 274.727 272.889 274.727Z" fill="white"/>
<path d="M307 274.727C308.015 274.727 308.838 273.904 308.838 272.889C308.838 271.874 308.015 271.051 307 271.051C305.985 271.051 305.162 271.874 305.162 272.889C305.162 273.904 305.985 274.727 307 274.727Z" fill="white"/>
<path d="M341.111 274.727C342.126 274.727 342.949 273.904 342.949 272.889C342.949 271.874 342.126 271.051 341.111 271.051C340.096 271.051 339.273 271.874 339.273 272.889C339.273 273.904 340.096 274.727 341.111 274.727Z" fill="white"/>
<path d="M375.222 274.727C376.237 274.727 377.06 273.904 377.06 272.889C377.06 271.874 376.237 271.051 375.222 271.051C374.207 271.051 373.384 271.874 373.384 272.889C373.384 273.904 374.207 274.727 375.222 274.727Z" fill="white"/>
<path d="M409.333 274.727C410.348 274.727 411.171 273.904 411.171 272.889C411.171 271.874 410.348 271.051 409.333 271.051C408.318 271.051 407.495 271.874 407.495 272.889C407.495 273.904 408.318 274.727 409.333 274.727Z" fill="white"/>
<path d="M443.444 274.727C444.459 274.727 445.282 273.904 445.282 272.889C445.282 271.874 444.459 271.051 443.444 271.051C442.429 271.051 441.606 271.874 441.606 272.889C441.606 273.904 442.429 274.727 443.444 274.727Z" fill="white"/>
<path d="M477.555 274.727C478.57 274.727 479.393 273.904 479.393 272.889C479.393 271.874 478.57 271.051 477.555 271.051C476.54 271.051 475.717 271.874 475.717 272.889C475.717 273.904 476.54 274.727 477.555 274.727Z" fill="white"/>
<path d="M511.666 274.727C512.682 274.727 513.504 273.904 513.504 272.889C513.504 271.874 512.682 271.051 511.666 271.051C510.651 271.051 509.828 271.874 509.828 272.889C509.828 273.904 510.651 274.727 511.666 274.727Z" fill="white"/>
<path d="M545.778 274.727C546.793 274.727 547.616 273.904 547.616 272.889C547.616 271.874 546.793 271.051 545.778 271.051C544.762 271.051 543.94 271.874 543.94 272.889C543.94 273.904 544.762 274.727 545.778 274.727Z" fill="white"/>
<path d="M579.889 274.727C580.904 274.727 581.727 273.904 581.727 272.889C581.727 271.874 580.904 271.051 579.889 271.051C578.874 271.051 578.051 271.874 578.051 272.889C578.051 273.904 578.874 274.727 579.889 274.727Z" fill="white"/>
<path d="M614 274.727C615.015 274.727 615.838 273.904 615.838 272.889C615.838 271.874 615.015 271.051 614 271.051C612.985 271.051 612.162 271.874 612.162 272.889C612.162 273.904 612.985 274.727 614 274.727Z" fill="white"/>
<path d="M-5.20945e-05 308.838C1.01503 308.838 1.83791 308.015 1.83791 307C1.83791 305.985 1.01503 305.162 -5.20945e-05 305.162C-1.01513 305.162 -1.83801 305.985 -1.83801 307C-1.83801 308.015 -1.01513 308.838 -5.20945e-05 308.838Z" fill="white"/>
<path d="M34.111 308.838C35.1261 308.838 35.949 308.015 35.949 307C35.949 305.985 35.1261 305.162 34.111 305.162C33.096 305.162 32.2731 305.985 32.2731 307C32.2731 308.015 33.096 308.838 34.111 308.838Z" fill="white"/>
<path d="M68.2221 308.838C69.2372 308.838 70.0601 308.015 70.0601 307C70.0601 305.985 69.2372 305.162 68.2221 305.162C67.207 305.162 66.3842 305.985 66.3842 307C66.3842 308.015 67.207 308.838 68.2221 308.838Z" fill="white"/>
<path d="M102.333 308.838C103.348 308.838 104.171 308.015 104.171 307C104.171 305.985 103.348 305.162 102.333 305.162C101.318 305.162 100.495 305.985 100.495 307C100.495 308.015 101.318 308.838 102.333 308.838Z" fill="white"/>
<path d="M136.444 308.838C137.459 308.838 138.282 308.015 138.282 307C138.282 305.985 137.459 305.162 136.444 305.162C135.429 305.162 134.606 305.985 134.606 307C134.606 308.015 135.429 308.838 136.444 308.838Z" fill="white"/>
<path d="M170.555 308.838C171.57 308.838 172.393 308.015 172.393 307C172.393 305.985 171.57 305.162 170.555 305.162C169.54 305.162 168.717 305.985 168.717 307C168.717 308.015 169.54 308.838 170.555 308.838Z" fill="white"/>
<path d="M204.667 308.838C205.682 308.838 206.505 308.015 206.505 307C206.505 305.985 205.682 305.162 204.667 305.162C203.652 305.162 202.829 305.985 202.829 307C202.829 308.015 203.652 308.838 204.667 308.838Z" fill="white"/>
<path d="M238.778 308.838C239.793 308.838 240.616 308.015 240.616 307C240.616 305.985 239.793 305.162 238.778 305.162C237.763 305.162 236.94 305.985 236.94 307C236.94 308.015 237.763 308.838 238.778 308.838Z" fill="white"/>
<path d="M272.889 308.838C273.904 308.838 274.727 308.015 274.727 307C274.727 305.985 273.904 305.162 272.889 305.162C271.874 305.162 271.051 305.985 271.051 307C271.051 308.015 271.874 308.838 272.889 308.838Z" fill="white"/>
<path d="M307 308.838C308.015 308.838 308.838 308.015 308.838 307C308.838 305.985 308.015 305.162 307 305.162C305.985 305.162 305.162 305.985 305.162 307C305.162 308.015 305.985 308.838 307 308.838Z" fill="white"/>
<path d="M341.111 308.838C342.126 308.838 342.949 308.015 342.949 307C342.949 305.985 342.126 305.162 341.111 305.162C340.096 305.162 339.273 305.985 339.273 307C339.273 308.015 340.096 308.838 341.111 308.838Z" fill="white"/>
<path d="M375.222 308.838C376.237 308.838 377.06 308.015 377.06 307C377.06 305.985 376.237 305.162 375.222 305.162C374.207 305.162 373.384 305.985 373.384 307C373.384 308.015 374.207 308.838 375.222 308.838Z" fill="white"/>
<path d="M409.333 308.838C410.348 308.838 411.171 308.015 411.171 307C411.171 305.985 410.348 305.162 409.333 305.162C408.318 305.162 407.495 305.985 407.495 307C407.495 308.015 408.318 308.838 409.333 308.838Z" fill="white"/>
<path d="M443.444 308.838C444.459 308.838 445.282 308.015 445.282 307C445.282 305.985 444.459 305.162 443.444 305.162C442.429 305.162 441.606 305.985 441.606 307C441.606 308.015 442.429 308.838 443.444 308.838Z" fill="white"/>
<path d="M477.555 308.838C478.57 308.838 479.393 308.015 479.393 307C479.393 305.985 478.57 305.162 477.555 305.162C476.54 305.162 475.717 305.985 475.717 307C475.717 308.015 476.54 308.838 477.555 308.838Z" fill="white"/>
<path d="M511.666 308.838C512.682 308.838 513.504 308.015 513.504 307C513.504 305.985 512.682 305.162 511.666 305.162C510.651 305.162 509.828 305.985 509.828 307C509.828 308.015 510.651 308.838 511.666 308.838Z" fill="white"/>
<path d="M545.778 308.838C546.793 308.838 547.616 308.015 547.616 307C547.616 305.985 546.793 305.162 545.778 305.162C544.762 305.162 543.94 305.985 543.94 307C543.94 308.015 544.762 308.838 545.778 308.838Z" fill="white"/>
<path d="M579.889 308.838C580.904 308.838 581.727 308.015 581.727 307C581.727 305.985 580.904 305.162 579.889 305.162C578.874 305.162 578.051 305.985 578.051 307C578.051 308.015 578.874 308.838 579.889 308.838Z" fill="white"/>
<path d="M614 308.838C615.015 308.838 615.838 308.015 615.838 307C615.838 305.985 615.015 305.162 614 305.162C612.985 305.162 612.162 305.985 612.162 307C612.162 308.015 612.985 308.838 614 308.838Z" fill="white"/>
<path d="M-5.20945e-05 342.949C1.01503 342.949 1.83791 342.126 1.83791 341.111C1.83791 340.096 1.01503 339.273 -5.20945e-05 339.273C-1.01513 339.273 -1.83801 340.096 -1.83801 341.111C-1.83801 342.126 -1.01513 342.949 -5.20945e-05 342.949Z" fill="white"/>
<path d="M34.111 342.949C35.1261 342.949 35.949 342.126 35.949 341.111C35.949 340.096 35.1261 339.273 34.111 339.273C33.096 339.273 32.2731 340.096 32.2731 341.111C32.2731 342.126 33.096 342.949 34.111 342.949Z" fill="white"/>
<path d="M68.2221 342.949C69.2372 342.949 70.0601 342.126 70.0601 341.111C70.0601 340.096 69.2372 339.273 68.2221 339.273C67.207 339.273 66.3842 340.096 66.3842 341.111C66.3842 342.126 67.207 342.949 68.2221 342.949Z" fill="white"/>
<path d="M102.333 342.949C103.348 342.949 104.171 342.126 104.171 341.111C104.171 340.096 103.348 339.273 102.333 339.273C101.318 339.273 100.495 340.096 100.495 341.111C100.495 342.126 101.318 342.949 102.333 342.949Z" fill="white"/>
<path d="M136.444 342.949C137.459 342.949 138.282 342.126 138.282 341.111C138.282 340.096 137.459 339.273 136.444 339.273C135.429 339.273 134.606 340.096 134.606 341.111C134.606 342.126 135.429 342.949 136.444 342.949Z" fill="white"/>
<path d="M170.555 342.949C171.57 342.949 172.393 342.126 172.393 341.111C172.393 340.096 171.57 339.273 170.555 339.273C169.54 339.273 168.717 340.096 168.717 341.111C168.717 342.126 169.54 342.949 170.555 342.949Z" fill="white"/>
<path d="M204.667 342.949C205.682 342.949 206.505 342.126 206.505 341.111C206.505 340.096 205.682 339.273 204.667 339.273C203.652 339.273 202.829 340.096 202.829 341.111C202.829 342.126 203.652 342.949 204.667 342.949Z" fill="white"/>
<path d="M238.778 342.949C239.793 342.949 240.616 342.126 240.616 341.111C240.616 340.096 239.793 339.273 238.778 339.273C237.763 339.273 236.94 340.096 236.94 341.111C236.94 342.126 237.763 342.949 238.778 342.949Z" fill="white"/>
<path d="M272.889 342.949C273.904 342.949 274.727 342.126 274.727 341.111C274.727 340.096 273.904 339.273 272.889 339.273C271.874 339.273 271.051 340.096 271.051 341.111C271.051 342.126 271.874 342.949 272.889 342.949Z" fill="white"/>
<path d="M307 342.949C308.015 342.949 308.838 342.126 308.838 341.111C308.838 340.096 308.015 339.273 307 339.273C305.985 339.273 305.162 340.096 305.162 341.111C305.162 342.126 305.985 342.949 307 342.949Z" fill="white"/>
<path d="M341.111 342.949C342.126 342.949 342.949 342.126 342.949 341.111C342.949 340.096 342.126 339.273 341.111 339.273C340.096 339.273 339.273 340.096 339.273 341.111C339.273 342.126 340.096 342.949 341.111 342.949Z" fill="white"/>
<path d="M375.222 342.949C376.237 342.949 377.06 342.126 377.06 341.111C377.06 340.096 376.237 339.273 375.222 339.273C374.207 339.273 373.384 340.096 373.384 341.111C373.384 342.126 374.207 342.949 375.222 342.949Z" fill="white"/>
<path d="M409.333 342.949C410.348 342.949 411.171 342.126 411.171 341.111C411.171 340.096 410.348 339.273 409.333 339.273C408.318 339.273 407.495 340.096 407.495 341.111C407.495 342.126 408.318 342.949 409.333 342.949Z" fill="white"/>
<path d="M443.444 342.949C444.459 342.949 445.282 342.126 445.282 341.111C445.282 340.096 444.459 339.273 443.444 339.273C442.429 339.273 441.606 340.096 441.606 341.111C441.606 342.126 442.429 342.949 443.444 342.949Z" fill="white"/>
<path d="M477.555 342.949C478.57 342.949 479.393 342.126 479.393 341.111C479.393 340.096 478.57 339.273 477.555 339.273C476.54 339.273 475.717 340.096 475.717 341.111C475.717 342.126 476.54 342.949 477.555 342.949Z" fill="white"/>
<path d="M511.666 342.949C512.682 342.949 513.504 342.126 513.504 341.111C513.504 340.096 512.682 339.273 511.666 339.273C510.651 339.273 509.828 340.096 509.828 341.111C509.828 342.126 510.651 342.949 511.666 342.949Z" fill="white"/>
<path d="M545.778 342.949C546.793 342.949 547.616 342.126 547.616 341.111C547.616 340.096 546.793 339.273 545.778 339.273C544.762 339.273 543.94 340.096 543.94 341.111C543.94 342.126 544.762 342.949 545.778 342.949Z" fill="white"/>
<path d="M579.889 342.949C580.904 342.949 581.727 342.126 581.727 341.111C581.727 340.096 580.904 339.273 579.889 339.273C578.874 339.273 578.051 340.096 578.051 341.111C578.051 342.126 578.874 342.949 579.889 342.949Z" fill="white"/>
<path d="M614 342.949C615.015 342.949 615.838 342.126 615.838 341.111C615.838 340.096 615.015 339.273 614 339.273C612.985 339.273 612.162 340.096 612.162 341.111C612.162 342.126 612.985 342.949 614 342.949Z" fill="white"/>
<path d="M-5.20945e-05 377.06C1.01503 377.06 1.83791 376.237 1.83791 375.222C1.83791 374.207 1.01503 373.384 -5.20945e-05 373.384C-1.01513 373.384 -1.83801 374.207 -1.83801 375.222C-1.83801 376.237 -1.01513 377.06 -5.20945e-05 377.06Z" fill="white"/>
<path d="M34.111 377.06C35.1261 377.06 35.949 376.237 35.949 375.222C35.949 374.207 35.1261 373.384 34.111 373.384C33.096 373.384 32.2731 374.207 32.2731 375.222C32.2731 376.237 33.096 377.06 34.111 377.06Z" fill="white"/>
<path d="M68.2221 377.06C69.2372 377.06 70.0601 376.237 70.0601 375.222C70.0601 374.207 69.2372 373.384 68.2221 373.384C67.207 373.384 66.3842 374.207 66.3842 375.222C66.3842 376.237 67.207 377.06 68.2221 377.06Z" fill="white"/>
<path d="M102.333 377.06C103.348 377.06 104.171 376.237 104.171 375.222C104.171 374.207 103.348 373.384 102.333 373.384C101.318 373.384 100.495 374.207 100.495 375.222C100.495 376.237 101.318 377.06 102.333 377.06Z" fill="white"/>
<path d="M136.444 377.06C137.459 377.06 138.282 376.237 138.282 375.222C138.282 374.207 137.459 373.384 136.444 373.384C135.429 373.384 134.606 374.207 134.606 375.222C134.606 376.237 135.429 377.06 136.444 377.06Z" fill="white"/>
<path d="M170.555 377.06C171.57 377.06 172.393 376.237 172.393 375.222C172.393 374.207 171.57 373.384 170.555 373.384C169.54 373.384 168.717 374.207 168.717 375.222C168.717 376.237 169.54 377.06 170.555 377.06Z" fill="white"/>
<path d="M204.667 377.06C205.682 377.06 206.505 376.237 206.505 375.222C206.505 374.207 205.682 373.384 204.667 373.384C203.652 373.384 202.829 374.207 202.829 375.222C202.829 376.237 203.652 377.06 204.667 377.06Z" fill="white"/>
<path d="M238.778 377.06C239.793 377.06 240.616 376.237 240.616 375.222C240.616 374.207 239.793 373.384 238.778 373.384C237.763 373.384 236.94 374.207 236.94 375.222C236.94 376.237 237.763 377.06 238.778 377.06Z" fill="white"/>
<path d="M272.889 377.06C273.904 377.06 274.727 376.237 274.727 375.222C274.727 374.207 273.904 373.384 272.889 373.384C271.874 373.384 271.051 374.207 271.051 375.222C271.051 376.237 271.874 377.06 272.889 377.06Z" fill="white"/>
<path d="M307 377.06C308.015 377.06 308.838 376.237 308.838 375.222C308.838 374.207 308.015 373.384 307 373.384C305.985 373.384 305.162 374.207 305.162 375.222C305.162 376.237 305.985 377.06 307 377.06Z" fill="white"/>
<path d="M341.111 377.06C342.126 377.06 342.949 376.237 342.949 375.222C342.949 374.207 342.126 373.384 341.111 373.384C340.096 373.384 339.273 374.207 339.273 375.222C339.273 376.237 340.096 377.06 341.111 377.06Z" fill="white"/>
<path d="M375.222 377.06C376.237 377.06 377.06 376.237 377.06 375.222C377.06 374.207 376.237 373.384 375.222 373.384C374.207 373.384 373.384 374.207 373.384 375.222C373.384 376.237 374.207 377.06 375.222 377.06Z" fill="white"/>
<path d="M409.333 377.06C410.348 377.06 411.171 376.237 411.171 375.222C411.171 374.207 410.348 373.384 409.333 373.384C408.318 373.384 407.495 374.207 407.495 375.222C407.495 376.237 408.318 377.06 409.333 377.06Z" fill="white"/>
<path d="M443.444 377.06C444.459 377.06 445.282 376.237 445.282 375.222C445.282 374.207 444.459 373.384 443.444 373.384C442.429 373.384 441.606 374.207 441.606 375.222C441.606 376.237 442.429 377.06 443.444 377.06Z" fill="white"/>
<path d="M477.555 377.06C478.57 377.06 479.393 376.237 479.393 375.222C479.393 374.207 478.57 373.384 477.555 373.384C476.54 373.384 475.717 374.207 475.717 375.222C475.717 376.237 476.54 377.06 477.555 377.06Z" fill="white"/>
<path d="M511.666 377.06C512.682 377.06 513.504 376.237 513.504 375.222C513.504 374.207 512.682 373.384 511.666 373.384C510.651 373.384 509.828 374.207 509.828 375.222C509.828 376.237 510.651 377.06 511.666 377.06Z" fill="white"/>
<path d="M545.778 377.06C546.793 377.06 547.616 376.237 547.616 375.222C547.616 374.207 546.793 373.384 545.778 373.384C544.762 373.384 543.94 374.207 543.94 375.222C543.94 376.237 544.762 377.06 545.778 377.06Z" fill="white"/>
<path d="M579.889 377.06C580.904 377.06 581.727 376.237 581.727 375.222C581.727 374.207 580.904 373.384 579.889 373.384C578.874 373.384 578.051 374.207 578.051 375.222C578.051 376.237 578.874 377.06 579.889 377.06Z" fill="white"/>
<path d="M614 377.06C615.015 377.06 615.838 376.237 615.838 375.222C615.838 374.207 615.015 373.384 614 373.384C612.985 373.384 612.162 374.207 612.162 375.222C612.162 376.237 612.985 377.06 614 377.06Z" fill="white"/>
<path d="M-5.20945e-05 411.172C1.01503 411.172 1.83791 410.349 1.83791 409.334C1.83791 408.318 1.01503 407.496 -5.20945e-05 407.496C-1.01513 407.496 -1.83801 408.318 -1.83801 409.334C-1.83801 410.349 -1.01513 411.172 -5.20945e-05 411.172Z" fill="white"/>
<path d="M34.111 411.172C35.1261 411.172 35.949 410.349 35.949 409.334C35.949 408.318 35.1261 407.496 34.111 407.496C33.096 407.496 32.2731 408.318 32.2731 409.334C32.2731 410.349 33.096 411.172 34.111 411.172Z" fill="white"/>
<path d="M68.2221 411.172C69.2372 411.172 70.0601 410.349 70.0601 409.334C70.0601 408.318 69.2372 407.496 68.2221 407.496C67.207 407.496 66.3842 408.318 66.3842 409.334C66.3842 410.349 67.207 411.172 68.2221 411.172Z" fill="white"/>
<path d="M102.333 411.172C103.348 411.172 104.171 410.349 104.171 409.334C104.171 408.318 103.348 407.496 102.333 407.496C101.318 407.496 100.495 408.318 100.495 409.334C100.495 410.349 101.318 411.172 102.333 411.172Z" fill="white"/>
<path d="M136.444 411.172C137.459 411.172 138.282 410.349 138.282 409.334C138.282 408.318 137.459 407.496 136.444 407.496C135.429 407.496 134.606 408.318 134.606 409.334C134.606 410.349 135.429 411.172 136.444 411.172Z" fill="white"/>
<path d="M170.555 411.172C171.57 411.172 172.393 410.349 172.393 409.334C172.393 408.318 171.57 407.496 170.555 407.496C169.54 407.496 168.717 408.318 168.717 409.334C168.717 410.349 169.54 411.172 170.555 411.172Z" fill="white"/>
<path d="M204.667 411.172C205.682 411.172 206.505 410.349 206.505 409.334C206.505 408.318 205.682 407.496 204.667 407.496C203.652 407.496 202.829 408.318 202.829 409.334C202.829 410.349 203.652 411.172 204.667 411.172Z" fill="white"/>
<path d="M238.778 411.172C239.793 411.172 240.616 410.349 240.616 409.334C240.616 408.318 239.793 407.496 238.778 407.496C237.763 407.496 236.94 408.318 236.94 409.334C236.94 410.349 237.763 411.172 238.778 411.172Z" fill="white"/>
<path d="M272.889 411.172C273.904 411.172 274.727 410.349 274.727 409.334C274.727 408.318 273.904 407.496 272.889 407.496C271.874 407.496 271.051 408.318 271.051 409.334C271.051 410.349 271.874 411.172 272.889 411.172Z" fill="white"/>
<path d="M307 411.172C308.015 411.172 308.838 410.349 308.838 409.334C308.838 408.318 308.015 407.496 307 407.496C305.985 407.496 305.162 408.318 305.162 409.334C305.162 410.349 305.985 411.172 307 411.172Z" fill="white"/>
<path d="M341.111 411.172C342.126 411.172 342.949 410.349 342.949 409.334C342.949 408.318 342.126 407.496 341.111 407.496C340.096 407.496 339.273 408.318 339.273 409.334C339.273 410.349 340.096 411.172 341.111 411.172Z" fill="white"/>
<path d="M375.222 411.172C376.237 411.172 377.06 410.349 377.06 409.334C377.06 408.318 376.237 407.496 375.222 407.496C374.207 407.496 373.384 408.318 373.384 409.334C373.384 410.349 374.207 411.172 375.222 411.172Z" fill="white"/>
<path d="M409.333 411.172C410.348 411.172 411.171 410.349 411.171 409.334C411.171 408.318 410.348 407.496 409.333 407.496C408.318 407.496 407.495 408.318 407.495 409.334C407.495 410.349 408.318 411.172 409.333 411.172Z" fill="white"/>
<path d="M443.444 411.172C444.459 411.172 445.282 410.349 445.282 409.334C445.282 408.318 444.459 407.496 443.444 407.496C442.429 407.496 441.606 408.318 441.606 409.334C441.606 410.349 442.429 411.172 443.444 411.172Z" fill="white"/>
<path d="M477.555 411.172C478.57 411.172 479.393 410.349 479.393 409.334C479.393 408.318 478.57 407.496 477.555 407.496C476.54 407.496 475.717 408.318 475.717 409.334C475.717 410.349 476.54 411.172 477.555 411.172Z" fill="white"/>
<path d="M511.666 411.172C512.682 411.172 513.504 410.349 513.504 409.334C513.504 408.318 512.682 407.496 511.666 407.496C510.651 407.496 509.828 408.318 509.828 409.334C509.828 410.349 510.651 411.172 511.666 411.172Z" fill="white"/>
<path d="M545.778 411.172C546.793 411.172 547.616 410.349 547.616 409.334C547.616 408.318 546.793 407.496 545.778 407.496C544.762 407.496 543.94 408.318 543.94 409.334C543.94 410.349 544.762 411.172 545.778 411.172Z" fill="white"/>
<path d="M579.889 411.172C580.904 411.172 581.727 410.349 581.727 409.334C581.727 408.318 580.904 407.496 579.889 407.496C578.874 407.496 578.051 408.318 578.051 409.334C578.051 410.349 578.874 411.172 579.889 411.172Z" fill="white"/>
<path d="M614 411.172C615.015 411.172 615.838 410.349 615.838 409.334C615.838 408.318 615.015 407.496 614 407.496C612.985 407.496 612.162 408.318 612.162 409.334C612.162 410.349 612.985 411.172 614 411.172Z" fill="white"/>
<path d="M-5.20945e-05 445.283C1.01503 445.283 1.83791 444.46 1.83791 443.445C1.83791 442.43 1.01503 441.607 -5.20945e-05 441.607C-1.01513 441.607 -1.83801 442.43 -1.83801 443.445C-1.83801 444.46 -1.01513 445.283 -5.20945e-05 445.283Z" fill="white"/>
<path d="M34.111 445.283C35.1261 445.283 35.949 444.46 35.949 443.445C35.949 442.43 35.1261 441.607 34.111 441.607C33.096 441.607 32.2731 442.43 32.2731 443.445C32.2731 444.46 33.096 445.283 34.111 445.283Z" fill="white"/>
<path d="M68.2221 445.283C69.2372 445.283 70.0601 444.46 70.0601 443.445C70.0601 442.43 69.2372 441.607 68.2221 441.607C67.207 441.607 66.3842 442.43 66.3842 443.445C66.3842 444.46 67.207 445.283 68.2221 445.283Z" fill="white"/>
<path d="M102.333 445.283C103.348 445.283 104.171 444.46 104.171 443.445C104.171 442.43 103.348 441.607 102.333 441.607C101.318 441.607 100.495 442.43 100.495 443.445C100.495 444.46 101.318 445.283 102.333 445.283Z" fill="white"/>
<path d="M136.444 445.283C137.459 445.283 138.282 444.46 138.282 443.445C138.282 442.43 137.459 441.607 136.444 441.607C135.429 441.607 134.606 442.43 134.606 443.445C134.606 444.46 135.429 445.283 136.444 445.283Z" fill="white"/>
<path d="M170.555 445.283C171.57 445.283 172.393 444.46 172.393 443.445C172.393 442.43 171.57 441.607 170.555 441.607C169.54 441.607 168.717 442.43 168.717 443.445C168.717 444.46 169.54 445.283 170.555 445.283Z" fill="white"/>
<path d="M204.667 445.283C205.682 445.283 206.505 444.46 206.505 443.445C206.505 442.43 205.682 441.607 204.667 441.607C203.652 441.607 202.829 442.43 202.829 443.445C202.829 444.46 203.652 445.283 204.667 445.283Z" fill="white"/>
<path d="M238.778 445.283C239.793 445.283 240.616 444.46 240.616 443.445C240.616 442.43 239.793 441.607 238.778 441.607C237.763 441.607 236.94 442.43 236.94 443.445C236.94 444.46 237.763 445.283 238.778 445.283Z" fill="white"/>
<path d="M272.889 445.283C273.904 445.283 274.727 444.46 274.727 443.445C274.727 442.43 273.904 441.607 272.889 441.607C271.874 441.607 271.051 442.43 271.051 443.445C271.051 444.46 271.874 445.283 272.889 445.283Z" fill="white"/>
<path d="M307 445.283C308.015 445.283 308.838 444.46 308.838 443.445C308.838 442.43 308.015 441.607 307 441.607C305.985 441.607 305.162 442.43 305.162 443.445C305.162 444.46 305.985 445.283 307 445.283Z" fill="white"/>
<path d="M341.111 445.283C342.126 445.283 342.949 444.46 342.949 443.445C342.949 442.43 342.126 441.607 341.111 441.607C340.096 441.607 339.273 442.43 339.273 443.445C339.273 444.46 340.096 445.283 341.111 445.283Z" fill="white"/>
<path d="M375.222 445.283C376.237 445.283 377.06 444.46 377.06 443.445C377.06 442.43 376.237 441.607 375.222 441.607C374.207 441.607 373.384 442.43 373.384 443.445C373.384 444.46 374.207 445.283 375.222 445.283Z" fill="white"/>
<path d="M409.333 445.283C410.348 445.283 411.171 444.46 411.171 443.445C411.171 442.43 410.348 441.607 409.333 441.607C408.318 441.607 407.495 442.43 407.495 443.445C407.495 444.46 408.318 445.283 409.333 445.283Z" fill="white"/>
<path d="M443.444 445.283C444.459 445.283 445.282 444.46 445.282 443.445C445.282 442.43 444.459 441.607 443.444 441.607C442.429 441.607 441.606 442.43 441.606 443.445C441.606 444.46 442.429 445.283 443.444 445.283Z" fill="white"/>
<path d="M477.555 445.283C478.57 445.283 479.393 444.46 479.393 443.445C479.393 442.43 478.57 441.607 477.555 441.607C476.54 441.607 475.717 442.43 475.717 443.445C475.717 444.46 476.54 445.283 477.555 445.283Z" fill="white"/>
<path d="M511.666 445.283C512.682 445.283 513.504 444.46 513.504 443.445C513.504 442.43 512.682 441.607 511.666 441.607C510.651 441.607 509.828 442.43 509.828 443.445C509.828 444.46 510.651 445.283 511.666 445.283Z" fill="white"/>
<path d="M545.778 445.283C546.793 445.283 547.616 444.46 547.616 443.445C547.616 442.43 546.793 441.607 545.778 441.607C544.762 441.607 543.94 442.43 543.94 443.445C543.94 444.46 544.762 445.283 545.778 445.283Z" fill="white"/>
<path d="M579.889 445.283C580.904 445.283 581.727 444.46 581.727 443.445C581.727 442.43 580.904 441.607 579.889 441.607C578.874 441.607 578.051 442.43 578.051 443.445C578.051 444.46 578.874 445.283 579.889 445.283Z" fill="white"/>
<path d="M614 445.283C615.015 445.283 615.838 444.46 615.838 443.445C615.838 442.43 615.015 441.607 614 441.607C612.985 441.607 612.162 442.43 612.162 443.445C612.162 444.46 612.985 445.283 614 445.283Z" fill="white"/>
<path d="M-5.20945e-05 479.394C1.01503 479.394 1.83791 478.571 1.83791 477.556C1.83791 476.541 1.01503 475.718 -5.20945e-05 475.718C-1.01513 475.718 -1.83801 476.541 -1.83801 477.556C-1.83801 478.571 -1.01513 479.394 -5.20945e-05 479.394Z" fill="white"/>
<path d="M34.111 479.394C35.1261 479.394 35.949 478.571 35.949 477.556C35.949 476.541 35.1261 475.718 34.111 475.718C33.096 475.718 32.2731 476.541 32.2731 477.556C32.2731 478.571 33.096 479.394 34.111 479.394Z" fill="white"/>
<path d="M68.2221 479.394C69.2372 479.394 70.0601 478.571 70.0601 477.556C70.0601 476.541 69.2372 475.718 68.2221 475.718C67.207 475.718 66.3842 476.541 66.3842 477.556C66.3842 478.571 67.207 479.394 68.2221 479.394Z" fill="white"/>
<path d="M102.333 479.394C103.348 479.394 104.171 478.571 104.171 477.556C104.171 476.541 103.348 475.718 102.333 475.718C101.318 475.718 100.495 476.541 100.495 477.556C100.495 478.571 101.318 479.394 102.333 479.394Z" fill="white"/>
<path d="M136.444 479.394C137.459 479.394 138.282 478.571 138.282 477.556C138.282 476.541 137.459 475.718 136.444 475.718C135.429 475.718 134.606 476.541 134.606 477.556C134.606 478.571 135.429 479.394 136.444 479.394Z" fill="white"/>
<path d="M170.555 479.394C171.57 479.394 172.393 478.571 172.393 477.556C172.393 476.541 171.57 475.718 170.555 475.718C169.54 475.718 168.717 476.541 168.717 477.556C168.717 478.571 169.54 479.394 170.555 479.394Z" fill="white"/>
<path d="M204.667 479.394C205.682 479.394 206.505 478.571 206.505 477.556C206.505 476.541 205.682 475.718 204.667 475.718C203.652 475.718 202.829 476.541 202.829 477.556C202.829 478.571 203.652 479.394 204.667 479.394Z" fill="white"/>
<path d="M238.778 479.394C239.793 479.394 240.616 478.571 240.616 477.556C240.616 476.541 239.793 475.718 238.778 475.718C237.763 475.718 236.94 476.541 236.94 477.556C236.94 478.571 237.763 479.394 238.778 479.394Z" fill="white"/>
<path d="M272.889 479.394C273.904 479.394 274.727 478.571 274.727 477.556C274.727 476.541 273.904 475.718 272.889 475.718C271.874 475.718 271.051 476.541 271.051 477.556C271.051 478.571 271.874 479.394 272.889 479.394Z" fill="white"/>
<path d="M307 479.394C308.015 479.394 308.838 478.571 308.838 477.556C308.838 476.541 308.015 475.718 307 475.718C305.985 475.718 305.162 476.541 305.162 477.556C305.162 478.571 305.985 479.394 307 479.394Z" fill="white"/>
<path d="M341.111 479.394C342.126 479.394 342.949 478.571 342.949 477.556C342.949 476.541 342.126 475.718 341.111 475.718C340.096 475.718 339.273 476.541 339.273 477.556C339.273 478.571 340.096 479.394 341.111 479.394Z" fill="white"/>
<path d="M375.222 479.394C376.237 479.394 377.06 478.571 377.06 477.556C377.06 476.541 376.237 475.718 375.222 475.718C374.207 475.718 373.384 476.541 373.384 477.556C373.384 478.571 374.207 479.394 375.222 479.394Z" fill="white"/>
<path d="M409.333 479.394C410.348 479.394 411.171 478.571 411.171 477.556C411.171 476.541 410.348 475.718 409.333 475.718C408.318 475.718 407.495 476.541 407.495 477.556C407.495 478.571 408.318 479.394 409.333 479.394Z" fill="white"/>
<path d="M443.444 479.394C444.459 479.394 445.282 478.571 445.282 477.556C445.282 476.541 444.459 475.718 443.444 475.718C442.429 475.718 441.606 476.541 441.606 477.556C441.606 478.571 442.429 479.394 443.444 479.394Z" fill="white"/>
<path d="M477.555 479.394C478.57 479.394 479.393 478.571 479.393 477.556C479.393 476.541 478.57 475.718 477.555 475.718C476.54 475.718 475.717 476.541 475.717 477.556C475.717 478.571 476.54 479.394 477.555 479.394Z" fill="white"/>
<path d="M511.666 479.394C512.682 479.394 513.504 478.571 513.504 477.556C513.504 476.541 512.682 475.718 511.666 475.718C510.651 475.718 509.828 476.541 509.828 477.556C509.828 478.571 510.651 479.394 511.666 479.394Z" fill="white"/>
<path d="M545.778 479.394C546.793 479.394 547.616 478.571 547.616 477.556C547.616 476.541 546.793 475.718 545.778 475.718C544.762 475.718 543.94 476.541 543.94 477.556C543.94 478.571 544.762 479.394 545.778 479.394Z" fill="white"/>
<path d="M579.889 479.394C580.904 479.394 581.727 478.571 581.727 477.556C581.727 476.541 580.904 475.718 579.889 475.718C578.874 475.718 578.051 476.541 578.051 477.556C578.051 478.571 578.874 479.394 579.889 479.394Z" fill="white"/>
<path d="M614 479.394C615.015 479.394 615.838 478.571 615.838 477.556C615.838 476.541 615.015 475.718 614 475.718C612.985 475.718 612.162 476.541 612.162 477.556C612.162 478.571 612.985 479.394 614 479.394Z" fill="white"/>
<path d="M-5.20945e-05 513.505C1.01503 513.505 1.83791 512.682 1.83791 511.667C1.83791 510.652 1.01503 509.829 -5.20945e-05 509.829C-1.01513 509.829 -1.83801 510.652 -1.83801 511.667C-1.83801 512.682 -1.01513 513.505 -5.20945e-05 513.505Z" fill="white"/>
<path d="M34.111 513.505C35.1261 513.505 35.949 512.682 35.949 511.667C35.949 510.652 35.1261 509.829 34.111 509.829C33.096 509.829 32.2731 510.652 32.2731 511.667C32.2731 512.682 33.096 513.505 34.111 513.505Z" fill="white"/>
<path d="M68.2221 513.505C69.2372 513.505 70.0601 512.682 70.0601 511.667C70.0601 510.652 69.2372 509.829 68.2221 509.829C67.207 509.829 66.3842 510.652 66.3842 511.667C66.3842 512.682 67.207 513.505 68.2221 513.505Z" fill="white"/>
<path d="M102.333 513.505C103.348 513.505 104.171 512.682 104.171 511.667C104.171 510.652 103.348 509.829 102.333 509.829C101.318 509.829 100.495 510.652 100.495 511.667C100.495 512.682 101.318 513.505 102.333 513.505Z" fill="white"/>
<path d="M136.444 513.505C137.459 513.505 138.282 512.682 138.282 511.667C138.282 510.652 137.459 509.829 136.444 509.829C135.429 509.829 134.606 510.652 134.606 511.667C134.606 512.682 135.429 513.505 136.444 513.505Z" fill="white"/>
<path d="M170.555 513.505C171.57 513.505 172.393 512.682 172.393 511.667C172.393 510.652 171.57 509.829 170.555 509.829C169.54 509.829 168.717 510.652 168.717 511.667C168.717 512.682 169.54 513.505 170.555 513.505Z" fill="white"/>
<path d="M204.667 513.505C205.682 513.505 206.505 512.682 206.505 511.667C206.505 510.652 205.682 509.829 204.667 509.829C203.652 509.829 202.829 510.652 202.829 511.667C202.829 512.682 203.652 513.505 204.667 513.505Z" fill="white"/>
<path d="M238.778 513.505C239.793 513.505 240.616 512.682 240.616 511.667C240.616 510.652 239.793 509.829 238.778 509.829C237.763 509.829 236.94 510.652 236.94 511.667C236.94 512.682 237.763 513.505 238.778 513.505Z" fill="white"/>
<path d="M272.889 513.505C273.904 513.505 274.727 512.682 274.727 511.667C274.727 510.652 273.904 509.829 272.889 509.829C271.874 509.829 271.051 510.652 271.051 511.667C271.051 512.682 271.874 513.505 272.889 513.505Z" fill="white"/>
<path d="M307 513.505C308.015 513.505 308.838 512.682 308.838 511.667C308.838 510.652 308.015 509.829 307 509.829C305.985 509.829 305.162 510.652 305.162 511.667C305.162 512.682 305.985 513.505 307 513.505Z" fill="white"/>
<path d="M341.111 513.505C342.126 513.505 342.949 512.682 342.949 511.667C342.949 510.652 342.126 509.829 341.111 509.829C340.096 509.829 339.273 510.652 339.273 511.667C339.273 512.682 340.096 513.505 341.111 513.505Z" fill="white"/>
<path d="M375.222 513.505C376.237 513.505 377.06 512.682 377.06 511.667C377.06 510.652 376.237 509.829 375.222 509.829C374.207 509.829 373.384 510.652 373.384 511.667C373.384 512.682 374.207 513.505 375.222 513.505Z" fill="white"/>
<path d="M409.333 513.505C410.348 513.505 411.171 512.682 411.171 511.667C411.171 510.652 410.348 509.829 409.333 509.829C408.318 509.829 407.495 510.652 407.495 511.667C407.495 512.682 408.318 513.505 409.333 513.505Z" fill="white"/>
<path d="M443.444 513.505C444.459 513.505 445.282 512.682 445.282 511.667C445.282 510.652 444.459 509.829 443.444 509.829C442.429 509.829 441.606 510.652 441.606 511.667C441.606 512.682 442.429 513.505 443.444 513.505Z" fill="white"/>
<path d="M477.555 513.505C478.57 513.505 479.393 512.682 479.393 511.667C479.393 510.652 478.57 509.829 477.555 509.829C476.54 509.829 475.717 510.652 475.717 511.667C475.717 512.682 476.54 513.505 477.555 513.505Z" fill="white"/>
<path d="M511.666 513.505C512.682 513.505 513.504 512.682 513.504 511.667C513.504 510.652 512.682 509.829 511.666 509.829C510.651 509.829 509.828 510.652 509.828 511.667C509.828 512.682 510.651 513.505 511.666 513.505Z" fill="white"/>
<path d="M545.778 513.505C546.793 513.505 547.616 512.682 547.616 511.667C547.616 510.652 546.793 509.829 545.778 509.829C544.762 509.829 543.94 510.652 543.94 511.667C543.94 512.682 544.762 513.505 545.778 513.505Z" fill="white"/>
<path d="M579.889 513.505C580.904 513.505 581.727 512.682 581.727 511.667C581.727 510.652 580.904 509.829 579.889 509.829C578.874 509.829 578.051 510.652 578.051 511.667C578.051 512.682 578.874 513.505 579.889 513.505Z" fill="white"/>
<path d="M614 513.505C615.015 513.505 615.838 512.682 615.838 511.667C615.838 510.652 615.015 509.829 614 509.829C612.985 509.829 612.162 510.652 612.162 511.667C612.162 512.682 612.985 513.505 614 513.505Z" fill="white"/>
<path d="M-5.20945e-05 547.616C1.01503 547.616 1.83791 546.793 1.83791 545.778C1.83791 544.763 1.01503 543.94 -5.20945e-05 543.94C-1.01513 543.94 -1.83801 544.763 -1.83801 545.778C-1.83801 546.793 -1.01513 547.616 -5.20945e-05 547.616Z" fill="white"/>
<path d="M34.111 547.616C35.1261 547.616 35.949 546.793 35.949 545.778C35.949 544.763 35.1261 543.94 34.111 543.94C33.096 543.94 32.2731 544.763 32.2731 545.778C32.2731 546.793 33.096 547.616 34.111 547.616Z" fill="white"/>
<path d="M68.2221 547.616C69.2372 547.616 70.0601 546.793 70.0601 545.778C70.0601 544.763 69.2372 543.94 68.2221 543.94C67.207 543.94 66.3842 544.763 66.3842 545.778C66.3842 546.793 67.207 547.616 68.2221 547.616Z" fill="white"/>
<path d="M102.333 547.616C103.348 547.616 104.171 546.793 104.171 545.778C104.171 544.763 103.348 543.94 102.333 543.94C101.318 543.94 100.495 544.763 100.495 545.778C100.495 546.793 101.318 547.616 102.333 547.616Z" fill="white"/>
<path d="M136.444 547.616C137.459 547.616 138.282 546.793 138.282 545.778C138.282 544.763 137.459 543.94 136.444 543.94C135.429 543.94 134.606 544.763 134.606 545.778C134.606 546.793 135.429 547.616 136.444 547.616Z" fill="white"/>
<path d="M170.555 547.616C171.57 547.616 172.393 546.793 172.393 545.778C172.393 544.763 171.57 543.94 170.555 543.94C169.54 543.94 168.717 544.763 168.717 545.778C168.717 546.793 169.54 547.616 170.555 547.616Z" fill="white"/>
<path d="M204.667 547.616C205.682 547.616 206.505 546.793 206.505 545.778C206.505 544.763 205.682 543.94 204.667 543.94C203.652 543.94 202.829 544.763 202.829 545.778C202.829 546.793 203.652 547.616 204.667 547.616Z" fill="white"/>
<path d="M238.778 547.616C239.793 547.616 240.616 546.793 240.616 545.778C240.616 544.763 239.793 543.94 238.778 543.94C237.763 543.94 236.94 544.763 236.94 545.778C236.94 546.793 237.763 547.616 238.778 547.616Z" fill="white"/>
<path d="M272.889 547.616C273.904 547.616 274.727 546.793 274.727 545.778C274.727 544.763 273.904 543.94 272.889 543.94C271.874 543.94 271.051 544.763 271.051 545.778C271.051 546.793 271.874 547.616 272.889 547.616Z" fill="white"/>
<path d="M307 547.616C308.015 547.616 308.838 546.793 308.838 545.778C308.838 544.763 308.015 543.94 307 543.94C305.985 543.94 305.162 544.763 305.162 545.778C305.162 546.793 305.985 547.616 307 547.616Z" fill="white"/>
<path d="M341.111 547.616C342.126 547.616 342.949 546.793 342.949 545.778C342.949 544.763 342.126 543.94 341.111 543.94C340.096 543.94 339.273 544.763 339.273 545.778C339.273 546.793 340.096 547.616 341.111 547.616Z" fill="white"/>
<path d="M375.222 547.616C376.237 547.616 377.06 546.793 377.06 545.778C377.06 544.763 376.237 543.94 375.222 543.94C374.207 543.94 373.384 544.763 373.384 545.778C373.384 546.793 374.207 547.616 375.222 547.616Z" fill="white"/>
<path d="M409.333 547.616C410.348 547.616 411.171 546.793 411.171 545.778C411.171 544.763 410.348 543.94 409.333 543.94C408.318 543.94 407.495 544.763 407.495 545.778C407.495 546.793 408.318 547.616 409.333 547.616Z" fill="white"/>
<path d="M443.444 547.616C444.459 547.616 445.282 546.793 445.282 545.778C445.282 544.763 444.459 543.94 443.444 543.94C442.429 543.94 441.606 544.763 441.606 545.778C441.606 546.793 442.429 547.616 443.444 547.616Z" fill="white"/>
<path d="M477.555 547.616C478.57 547.616 479.393 546.793 479.393 545.778C479.393 544.763 478.57 543.94 477.555 543.94C476.54 543.94 475.717 544.763 475.717 545.778C475.717 546.793 476.54 547.616 477.555 547.616Z" fill="white"/>
<path d="M511.666 547.616C512.682 547.616 513.504 546.793 513.504 545.778C513.504 544.763 512.682 543.94 511.666 543.94C510.651 543.94 509.828 544.763 509.828 545.778C509.828 546.793 510.651 547.616 511.666 547.616Z" fill="white"/>
<path d="M545.778 547.616C546.793 547.616 547.616 546.793 547.616 545.778C547.616 544.763 546.793 543.94 545.778 543.94C544.762 543.94 543.94 544.763 543.94 545.778C543.94 546.793 544.762 547.616 545.778 547.616Z" fill="white"/>
<path d="M579.889 547.616C580.904 547.616 581.727 546.793 581.727 545.778C581.727 544.763 580.904 543.94 579.889 543.94C578.874 543.94 578.051 544.763 578.051 545.778C578.051 546.793 578.874 547.616 579.889 547.616Z" fill="white"/>
<path d="M614 547.616C615.015 547.616 615.838 546.793 615.838 545.778C615.838 544.763 615.015 543.94 614 543.94C612.985 543.94 612.162 544.763 612.162 545.778C612.162 546.793 612.985 547.616 614 547.616Z" fill="white"/>
<path d="M-5.20945e-05 581.727C1.01503 581.727 1.83791 580.904 1.83791 579.889C1.83791 578.874 1.01503 578.051 -5.20945e-05 578.051C-1.01513 578.051 -1.83801 578.874 -1.83801 579.889C-1.83801 580.904 -1.01513 581.727 -5.20945e-05 581.727Z" fill="white"/>
<path d="M34.111 581.727C35.1261 581.727 35.949 580.904 35.949 579.889C35.949 578.874 35.1261 578.051 34.111 578.051C33.096 578.051 32.2731 578.874 32.2731 579.889C32.2731 580.904 33.096 581.727 34.111 581.727Z" fill="white"/>
<path d="M68.2221 581.727C69.2372 581.727 70.0601 580.904 70.0601 579.889C70.0601 578.874 69.2372 578.051 68.2221 578.051C67.207 578.051 66.3842 578.874 66.3842 579.889C66.3842 580.904 67.207 581.727 68.2221 581.727Z" fill="white"/>
<path d="M102.333 581.727C103.348 581.727 104.171 580.904 104.171 579.889C104.171 578.874 103.348 578.051 102.333 578.051C101.318 578.051 100.495 578.874 100.495 579.889C100.495 580.904 101.318 581.727 102.333 581.727Z" fill="white"/>
<path d="M136.444 581.727C137.459 581.727 138.282 580.904 138.282 579.889C138.282 578.874 137.459 578.051 136.444 578.051C135.429 578.051 134.606 578.874 134.606 579.889C134.606 580.904 135.429 581.727 136.444 581.727Z" fill="white"/>
<path d="M170.555 581.727C171.57 581.727 172.393 580.904 172.393 579.889C172.393 578.874 171.57 578.051 170.555 578.051C169.54 578.051 168.717 578.874 168.717 579.889C168.717 580.904 169.54 581.727 170.555 581.727Z" fill="white"/>
<path d="M204.667 581.727C205.682 581.727 206.505 580.904 206.505 579.889C206.505 578.874 205.682 578.051 204.667 578.051C203.652 578.051 202.829 578.874 202.829 579.889C202.829 580.904 203.652 581.727 204.667 581.727Z" fill="white"/>
<path d="M238.778 581.727C239.793 581.727 240.616 580.904 240.616 579.889C240.616 578.874 239.793 578.051 238.778 578.051C237.763 578.051 236.94 578.874 236.94 579.889C236.94 580.904 237.763 581.727 238.778 581.727Z" fill="white"/>
<path d="M272.889 581.727C273.904 581.727 274.727 580.904 274.727 579.889C274.727 578.874 273.904 578.051 272.889 578.051C271.874 578.051 271.051 578.874 271.051 579.889C271.051 580.904 271.874 581.727 272.889 581.727Z" fill="white"/>
<path d="M307 581.727C308.015 581.727 308.838 580.904 308.838 579.889C308.838 578.874 308.015 578.051 307 578.051C305.985 578.051 305.162 578.874 305.162 579.889C305.162 580.904 305.985 581.727 307 581.727Z" fill="white"/>
<path d="M341.111 581.727C342.126 581.727 342.949 580.904 342.949 579.889C342.949 578.874 342.126 578.051 341.111 578.051C340.096 578.051 339.273 578.874 339.273 579.889C339.273 580.904 340.096 581.727 341.111 581.727Z" fill="white"/>
<path d="M375.222 581.727C376.237 581.727 377.06 580.904 377.06 579.889C377.06 578.874 376.237 578.051 375.222 578.051C374.207 578.051 373.384 578.874 373.384 579.889C373.384 580.904 374.207 581.727 375.222 581.727Z" fill="white"/>
<path d="M409.333 581.727C410.348 581.727 411.171 580.904 411.171 579.889C411.171 578.874 410.348 578.051 409.333 578.051C408.318 578.051 407.495 578.874 407.495 579.889C407.495 580.904 408.318 581.727 409.333 581.727Z" fill="white"/>
<path d="M443.444 581.727C444.459 581.727 445.282 580.904 445.282 579.889C445.282 578.874 444.459 578.051 443.444 578.051C442.429 578.051 441.606 578.874 441.606 579.889C441.606 580.904 442.429 581.727 443.444 581.727Z" fill="white"/>
<path d="M477.555 581.727C478.57 581.727 479.393 580.904 479.393 579.889C479.393 578.874 478.57 578.051 477.555 578.051C476.54 578.051 475.717 578.874 475.717 579.889C475.717 580.904 476.54 581.727 477.555 581.727Z" fill="white"/>
<path d="M511.666 581.727C512.682 581.727 513.504 580.904 513.504 579.889C513.504 578.874 512.682 578.051 511.666 578.051C510.651 578.051 509.828 578.874 509.828 579.889C509.828 580.904 510.651 581.727 511.666 581.727Z" fill="white"/>
<path d="M545.778 581.727C546.793 581.727 547.616 580.904 547.616 579.889C547.616 578.874 546.793 578.051 545.778 578.051C544.762 578.051 543.94 578.874 543.94 579.889C543.94 580.904 544.762 581.727 545.778 581.727Z" fill="white"/>
<path d="M579.889 581.727C580.904 581.727 581.727 580.904 581.727 579.889C581.727 578.874 580.904 578.051 579.889 578.051C578.874 578.051 578.051 578.874 578.051 579.889C578.051 580.904 578.874 581.727 579.889 581.727Z" fill="white"/>
<path d="M614 581.727C615.015 581.727 615.838 580.904 615.838 579.889C615.838 578.874 615.015 578.051 614 578.051C612.985 578.051 612.162 578.874 612.162 579.889C612.162 580.904 612.985 581.727 614 581.727Z" fill="white"/>
<path d="M-5.20945e-05 615.838C1.01503 615.838 1.83791 615.015 1.83791 614C1.83791 612.985 1.01503 612.162 -5.20945e-05 612.162C-1.01513 612.162 -1.83801 612.985 -1.83801 614C-1.83801 615.015 -1.01513 615.838 -5.20945e-05 615.838Z" fill="white"/>
<path d="M34.111 615.838C35.1261 615.838 35.949 615.015 35.949 614C35.949 612.985 35.1261 612.162 34.111 612.162C33.096 612.162 32.2731 612.985 32.2731 614C32.2731 615.015 33.096 615.838 34.111 615.838Z" fill="white"/>
<path d="M68.2221 615.838C69.2372 615.838 70.0601 615.015 70.0601 614C70.0601 612.985 69.2372 612.162 68.2221 612.162C67.207 612.162 66.3842 612.985 66.3842 614C66.3842 615.015 67.207 615.838 68.2221 615.838Z" fill="white"/>
<path d="M102.333 615.838C103.348 615.838 104.171 615.015 104.171 614C104.171 612.985 103.348 612.162 102.333 612.162C101.318 612.162 100.495 612.985 100.495 614C100.495 615.015 101.318 615.838 102.333 615.838Z" fill="white"/>
<path d="M136.444 615.838C137.459 615.838 138.282 615.015 138.282 614C138.282 612.985 137.459 612.162 136.444 612.162C135.429 612.162 134.606 612.985 134.606 614C134.606 615.015 135.429 615.838 136.444 615.838Z" fill="white"/>
<path d="M170.555 615.838C171.57 615.838 172.393 615.015 172.393 614C172.393 612.985 171.57 612.162 170.555 612.162C169.54 612.162 168.717 612.985 168.717 614C168.717 615.015 169.54 615.838 170.555 615.838Z" fill="white"/>
<path d="M204.667 615.838C205.682 615.838 206.505 615.015 206.505 614C206.505 612.985 205.682 612.162 204.667 612.162C203.652 612.162 202.829 612.985 202.829 614C202.829 615.015 203.652 615.838 204.667 615.838Z" fill="white"/>
<path d="M238.778 615.838C239.793 615.838 240.616 615.015 240.616 614C240.616 612.985 239.793 612.162 238.778 612.162C237.763 612.162 236.94 612.985 236.94 614C236.94 615.015 237.763 615.838 238.778 615.838Z" fill="white"/>
<path d="M272.889 615.838C273.904 615.838 274.727 615.015 274.727 614C274.727 612.985 273.904 612.162 272.889 612.162C271.874 612.162 271.051 612.985 271.051 614C271.051 615.015 271.874 615.838 272.889 615.838Z" fill="white"/>
<path d="M307 615.838C308.015 615.838 308.838 615.015 308.838 614C308.838 612.985 308.015 612.162 307 612.162C305.985 612.162 305.162 612.985 305.162 614C305.162 615.015 305.985 615.838 307 615.838Z" fill="white"/>
<path d="M341.111 615.838C342.126 615.838 342.949 615.015 342.949 614C342.949 612.985 342.126 612.162 341.111 612.162C340.096 612.162 339.273 612.985 339.273 614C339.273 615.015 340.096 615.838 341.111 615.838Z" fill="white"/>
<path d="M375.222 615.838C376.237 615.838 377.06 615.015 377.06 614C377.06 612.985 376.237 612.162 375.222 612.162C374.207 612.162 373.384 612.985 373.384 614C373.384 615.015 374.207 615.838 375.222 615.838Z" fill="white"/>
<path d="M409.333 615.838C410.348 615.838 411.171 615.015 411.171 614C411.171 612.985 410.348 612.162 409.333 612.162C408.318 612.162 407.495 612.985 407.495 614C407.495 615.015 408.318 615.838 409.333 615.838Z" fill="white"/>
<path d="M443.444 615.838C444.459 615.838 445.282 615.015 445.282 614C445.282 612.985 444.459 612.162 443.444 612.162C442.429 612.162 441.606 612.985 441.606 614C441.606 615.015 442.429 615.838 443.444 615.838Z" fill="white"/>
<path d="M477.555 615.838C478.57 615.838 479.393 615.015 479.393 614C479.393 612.985 478.57 612.162 477.555 612.162C476.54 612.162 475.717 612.985 475.717 614C475.717 615.015 476.54 615.838 477.555 615.838Z" fill="white"/>
<path d="M511.666 615.838C512.682 615.838 513.504 615.015 513.504 614C513.504 612.985 512.682 612.162 511.666 612.162C510.651 612.162 509.828 612.985 509.828 614C509.828 615.015 510.651 615.838 511.666 615.838Z" fill="white"/>
<path d="M545.778 615.838C546.793 615.838 547.616 615.015 547.616 614C547.616 612.985 546.793 612.162 545.778 612.162C544.762 612.162 543.94 612.985 543.94 614C543.94 615.015 544.762 615.838 545.778 615.838Z" fill="white"/>
<path d="M579.889 615.838C580.904 615.838 581.727 615.015 581.727 614C581.727 612.985 580.904 612.162 579.889 612.162C578.874 612.162 578.051 612.985 578.051 614C578.051 615.015 578.874 615.838 579.889 615.838Z" fill="white"/>
<path d="M614 615.838C615.015 615.838 615.838 615.015 615.838 614C615.838 612.985 615.015 612.162 614 612.162C612.985 612.162 612.162 612.985 612.162 614C612.162 615.015 612.985 615.838 614 615.838Z" fill="white"/>
</g>
<defs>
<clipPath id="clip0_749_4">
<rect width="614" height="614" fill="white"/>
</clipPath>
</defs>
</svg>
