<svg width="944" height="292" viewBox="0 0 944 292" fill="none" xmlns="http://www.w3.org/2000/svg">
<path d="M351.358 94.8125C351.093 92.3314 349.975 90.3996 348.006 89.017C346.055 87.6345 343.517 86.9432 340.392 86.9432C338.195 86.9432 336.311 87.2746 334.739 87.9375C333.167 88.6004 331.964 89.5 331.131 90.6364C330.297 91.7727 329.871 93.0701 329.852 94.5284C329.852 95.7405 330.127 96.7917 330.676 97.6818C331.244 98.572 332.011 99.3295 332.977 99.9545C333.943 100.561 335.013 101.072 336.188 101.489C337.362 101.905 338.545 102.256 339.739 102.54L345.193 103.903C347.39 104.415 349.502 105.106 351.528 105.977C353.574 106.848 355.402 107.947 357.011 109.273C358.64 110.598 359.928 112.199 360.875 114.074C361.822 115.949 362.295 118.146 362.295 120.665C362.295 124.074 361.424 127.076 359.682 129.67C357.939 132.246 355.42 134.263 352.125 135.722C348.848 137.161 344.881 137.881 340.222 137.881C335.695 137.881 331.765 137.18 328.432 135.778C325.117 134.377 322.523 132.331 320.648 129.642C318.792 126.953 317.788 123.676 317.636 119.812H328.006C328.157 121.839 328.782 123.525 329.881 124.869C330.979 126.214 332.409 127.218 334.17 127.881C335.951 128.544 337.939 128.875 340.136 128.875C342.428 128.875 344.436 128.534 346.159 127.852C347.902 127.152 349.265 126.186 350.25 124.955C351.235 123.705 351.737 122.246 351.756 120.58C351.737 119.064 351.292 117.814 350.42 116.83C349.549 115.826 348.328 114.992 346.756 114.33C345.203 113.648 343.384 113.042 341.301 112.511L334.682 110.807C329.89 109.576 326.102 107.71 323.318 105.21C320.553 102.691 319.17 99.3485 319.17 95.1818C319.17 91.7538 320.098 88.7519 321.955 86.1761C323.83 83.6004 326.377 81.6023 329.597 80.1818C332.816 78.7424 336.462 78.0227 340.534 78.0227C344.663 78.0227 348.28 78.7424 351.386 80.1818C354.511 81.6023 356.964 83.5814 358.744 86.1193C360.525 88.6383 361.443 91.536 361.5 94.8125H351.358ZM390.555 137.852C386.18 137.852 382.402 136.943 379.22 135.125C376.057 133.288 373.624 130.693 371.919 127.341C370.214 123.97 369.362 120.002 369.362 115.438C369.362 110.949 370.214 107.009 371.919 103.619C373.643 100.21 376.048 97.5587 379.135 95.6648C382.222 93.7519 385.849 92.7955 390.016 92.7955C392.705 92.7955 395.243 93.2311 397.629 94.1023C400.035 94.9545 402.156 96.2803 403.993 98.0795C405.849 99.8788 407.307 102.17 408.368 104.955C409.429 107.72 409.959 111.015 409.959 114.841V117.994H374.192V111.062H400.101C400.082 109.093 399.656 107.341 398.822 105.807C397.989 104.254 396.824 103.032 395.328 102.142C393.851 101.252 392.127 100.807 390.158 100.807C388.055 100.807 386.209 101.318 384.618 102.341C383.027 103.345 381.786 104.67 380.896 106.318C380.025 107.947 379.58 109.737 379.561 111.688V117.739C379.561 120.277 380.025 122.455 380.953 124.273C381.881 126.072 383.179 127.455 384.845 128.42C386.512 129.367 388.463 129.841 390.697 129.841C392.194 129.841 393.548 129.633 394.76 129.216C395.972 128.78 397.023 128.146 397.913 127.312C398.804 126.479 399.476 125.447 399.93 124.216L409.533 125.295C408.927 127.833 407.771 130.049 406.067 131.943C404.381 133.818 402.222 135.277 399.589 136.318C396.957 137.341 393.946 137.852 390.555 137.852ZM431.216 137.881C428.451 137.881 425.96 137.388 423.744 136.403C421.547 135.4 419.805 133.922 418.517 131.972C417.248 130.021 416.614 127.616 416.614 124.756C416.614 122.294 417.068 120.258 417.977 118.648C418.886 117.038 420.127 115.75 421.699 114.784C423.271 113.818 425.042 113.089 427.011 112.597C429 112.085 431.055 111.716 433.176 111.489C435.733 111.223 437.807 110.987 439.398 110.778C440.989 110.551 442.144 110.21 442.864 109.756C443.602 109.282 443.972 108.553 443.972 107.568V107.398C443.972 105.258 443.337 103.6 442.068 102.426C440.799 101.252 438.972 100.665 436.585 100.665C434.066 100.665 432.068 101.214 430.591 102.312C429.133 103.411 428.148 104.708 427.636 106.205L418.034 104.841C418.792 102.189 420.042 99.9735 421.784 98.1932C423.527 96.3939 425.657 95.0492 428.176 94.1591C430.695 93.25 433.479 92.7955 436.528 92.7955C438.631 92.7955 440.723 93.0417 442.807 93.5341C444.89 94.0265 446.794 94.8409 448.517 95.9773C450.241 97.0947 451.623 98.6193 452.665 100.551C453.725 102.483 454.256 104.898 454.256 107.795V137H444.369V131.006H444.028C443.403 132.218 442.523 133.354 441.386 134.415C440.269 135.456 438.858 136.299 437.153 136.943C435.468 137.568 433.489 137.881 431.216 137.881ZM433.886 130.324C435.951 130.324 437.741 129.917 439.256 129.102C440.771 128.269 441.936 127.17 442.75 125.807C443.583 124.443 444 122.956 444 121.347V116.205C443.678 116.47 443.129 116.716 442.352 116.943C441.595 117.17 440.742 117.369 439.795 117.54C438.848 117.71 437.911 117.862 436.983 117.994C436.055 118.127 435.25 118.241 434.568 118.335C433.034 118.544 431.661 118.884 430.449 119.358C429.237 119.831 428.28 120.494 427.58 121.347C426.879 122.18 426.528 123.259 426.528 124.585C426.528 126.479 427.22 127.909 428.602 128.875C429.985 129.841 431.746 130.324 433.886 130.324ZM496.67 94.8125C496.405 92.3314 495.288 90.3996 493.318 89.017C491.367 87.6345 488.83 86.9432 485.705 86.9432C483.508 86.9432 481.623 87.2746 480.051 87.9375C478.479 88.6004 477.277 89.5 476.443 90.6364C475.61 91.7727 475.184 93.0701 475.165 94.5284C475.165 95.7405 475.439 96.7917 475.989 97.6818C476.557 98.572 477.324 99.3295 478.29 99.9545C479.256 100.561 480.326 101.072 481.5 101.489C482.674 101.905 483.858 102.256 485.051 102.54L490.506 103.903C492.703 104.415 494.814 105.106 496.841 105.977C498.886 106.848 500.714 107.947 502.324 109.273C503.953 110.598 505.241 112.199 506.188 114.074C507.134 115.949 507.608 118.146 507.608 120.665C507.608 124.074 506.737 127.076 504.994 129.67C503.252 132.246 500.733 134.263 497.438 135.722C494.161 137.161 490.193 137.881 485.534 137.881C481.008 137.881 477.078 137.18 473.744 135.778C470.43 134.377 467.835 132.331 465.96 129.642C464.104 126.953 463.1 123.676 462.949 119.812H473.318C473.47 121.839 474.095 123.525 475.193 124.869C476.292 126.214 477.722 127.218 479.483 127.881C481.263 128.544 483.252 128.875 485.449 128.875C487.741 128.875 489.748 128.534 491.472 127.852C493.214 127.152 494.578 126.186 495.562 124.955C496.547 123.705 497.049 122.246 497.068 120.58C497.049 119.064 496.604 117.814 495.733 116.83C494.862 115.826 493.64 114.992 492.068 114.33C490.515 113.648 488.697 113.042 486.614 112.511L479.994 110.807C475.203 109.576 471.415 107.71 468.631 105.21C465.866 102.691 464.483 99.3485 464.483 95.1818C464.483 91.7538 465.411 88.7519 467.267 86.1761C469.142 83.6004 471.689 81.6023 474.909 80.1818C478.129 78.7424 481.775 78.0227 485.847 78.0227C489.975 78.0227 493.593 78.7424 496.699 80.1818C499.824 81.6023 502.277 83.5814 504.057 86.1193C505.837 88.6383 506.756 91.536 506.812 94.8125H496.67ZM529.107 137.881C526.341 137.881 523.851 137.388 521.635 136.403C519.438 135.4 517.696 133.922 516.408 131.972C515.139 130.021 514.504 127.616 514.504 124.756C514.504 122.294 514.959 120.258 515.868 118.648C516.777 117.038 518.018 115.75 519.589 114.784C521.161 113.818 522.932 113.089 524.902 112.597C526.891 112.085 528.946 111.716 531.067 111.489C533.624 111.223 535.697 110.987 537.288 110.778C538.879 110.551 540.035 110.21 540.754 109.756C541.493 109.282 541.862 108.553 541.862 107.568V107.398C541.862 105.258 541.228 103.6 539.959 102.426C538.69 101.252 536.862 100.665 534.476 100.665C531.957 100.665 529.959 101.214 528.482 102.312C527.023 103.411 526.038 104.708 525.527 106.205L515.925 104.841C516.682 102.189 517.932 99.9735 519.675 98.1932C521.417 96.3939 523.548 95.0492 526.067 94.1591C528.586 93.25 531.37 92.7955 534.419 92.7955C536.521 92.7955 538.614 93.0417 540.697 93.5341C542.781 94.0265 544.684 94.8409 546.408 95.9773C548.131 97.0947 549.514 98.6193 550.555 100.551C551.616 102.483 552.146 104.898 552.146 107.795V137H542.26V131.006H541.919C541.294 132.218 540.413 133.354 539.277 134.415C538.16 135.456 536.749 136.299 535.044 136.943C533.358 137.568 531.379 137.881 529.107 137.881ZM531.777 130.324C533.841 130.324 535.631 129.917 537.146 129.102C538.661 128.269 539.826 127.17 540.641 125.807C541.474 124.443 541.891 122.956 541.891 121.347V116.205C541.569 116.47 541.019 116.716 540.243 116.943C539.485 117.17 538.633 117.369 537.686 117.54C536.739 117.71 535.802 117.862 534.874 117.994C533.946 118.127 533.141 118.241 532.459 118.335C530.925 118.544 529.552 118.884 528.339 119.358C527.127 119.831 526.171 120.494 525.47 121.347C524.769 122.18 524.419 123.259 524.419 124.585C524.419 126.479 525.11 127.909 526.493 128.875C527.875 129.841 529.637 130.324 531.777 130.324ZM572.771 78.8182V137H562.487V78.8182H572.771ZM611.159 118.648V93.3636H621.443V137H611.472V129.244H611.017C610.032 131.687 608.413 133.686 606.159 135.239C603.924 136.792 601.169 137.568 597.892 137.568C595.032 137.568 592.504 136.934 590.307 135.665C588.129 134.377 586.424 132.511 585.193 130.068C583.962 127.606 583.347 124.633 583.347 121.148V93.3636H593.631V119.557C593.631 122.322 594.388 124.519 595.903 126.148C597.419 127.777 599.407 128.591 601.869 128.591C603.384 128.591 604.852 128.222 606.273 127.483C607.693 126.744 608.858 125.646 609.767 124.188C610.695 122.71 611.159 120.864 611.159 118.648ZM666.507 104.898L657.132 105.92C656.867 104.973 656.403 104.083 655.74 103.25C655.096 102.417 654.225 101.744 653.126 101.233C652.028 100.722 650.683 100.466 649.092 100.466C646.952 100.466 645.153 100.93 643.695 101.858C642.255 102.786 641.545 103.989 641.564 105.466C641.545 106.735 642.009 107.767 642.956 108.562C643.922 109.358 645.513 110.011 647.729 110.523L655.172 112.114C659.301 113.004 662.369 114.415 664.376 116.347C666.403 118.278 667.426 120.807 667.445 123.932C667.426 126.678 666.621 129.102 665.03 131.205C663.458 133.288 661.27 134.917 658.467 136.091C655.664 137.265 652.445 137.852 648.808 137.852C643.467 137.852 639.168 136.735 635.911 134.5C632.653 132.246 630.712 129.112 630.087 125.097L640.115 124.131C640.57 126.1 641.536 127.587 643.013 128.591C644.49 129.595 646.412 130.097 648.78 130.097C651.223 130.097 653.183 129.595 654.661 128.591C656.157 127.587 656.905 126.347 656.905 124.869C656.905 123.619 656.422 122.587 655.456 121.773C654.509 120.958 653.032 120.333 651.024 119.898L643.581 118.335C639.395 117.464 636.299 115.996 634.291 113.932C632.284 111.848 631.289 109.216 631.308 106.034C631.289 103.345 632.018 101.015 633.496 99.0455C634.992 97.0568 637.066 95.5227 639.717 94.4432C642.388 93.3447 645.465 92.7955 648.95 92.7955C654.064 92.7955 658.089 93.8845 661.024 96.0625C663.979 98.2405 665.806 101.186 666.507 104.898ZM319.636 167.455H326.364L342.182 206.091H342.727L358.545 167.455H365.273V214H360V178.636H359.545L345 214H339.909L325.364 178.636H324.909V214H319.636V167.455ZM399.559 214.818C397.347 214.818 395.34 214.402 393.537 213.568C391.734 212.72 390.302 211.5 389.241 209.909C388.181 208.303 387.65 206.364 387.65 204.091C387.65 202.091 388.044 200.47 388.832 199.227C389.62 197.97 390.673 196.985 391.991 196.273C393.309 195.561 394.764 195.03 396.355 194.682C397.961 194.318 399.574 194.03 401.196 193.818C403.317 193.545 405.037 193.341 406.355 193.205C407.688 193.053 408.658 192.803 409.264 192.455C409.885 192.106 410.196 191.5 410.196 190.636V190.455C410.196 188.212 409.582 186.47 408.355 185.227C407.143 183.985 405.302 183.364 402.832 183.364C400.271 183.364 398.264 183.924 396.809 185.045C395.355 186.167 394.332 187.364 393.741 188.636L388.65 186.818C389.559 184.697 390.771 183.045 392.287 181.864C393.817 180.667 395.484 179.833 397.287 179.364C399.105 178.879 400.893 178.636 402.65 178.636C403.771 178.636 405.059 178.773 406.514 179.045C407.984 179.303 409.4 179.841 410.764 180.659C412.143 181.477 413.287 182.712 414.196 184.364C415.105 186.015 415.559 188.227 415.559 191V214H410.196V209.273H409.923C409.559 210.03 408.953 210.841 408.105 211.705C407.256 212.568 406.128 213.303 404.718 213.909C403.309 214.515 401.59 214.818 399.559 214.818ZM400.378 210C402.499 210 404.287 209.583 405.741 208.75C407.211 207.917 408.317 206.841 409.059 205.523C409.817 204.205 410.196 202.818 410.196 201.364V196.455C409.968 196.727 409.468 196.977 408.696 197.205C407.938 197.417 407.059 197.606 406.059 197.773C405.074 197.924 404.112 198.061 403.173 198.182C402.249 198.288 401.499 198.379 400.923 198.455C399.529 198.636 398.226 198.932 397.014 199.341C395.817 199.735 394.847 200.333 394.105 201.136C393.378 201.924 393.014 203 393.014 204.364C393.014 206.227 393.703 207.636 395.082 208.591C396.476 209.53 398.241 210 400.378 210ZM438.789 214V179.091H443.971V184.364H444.335C444.971 182.636 446.122 181.235 447.789 180.159C449.456 179.083 451.335 178.545 453.425 178.545C453.819 178.545 454.312 178.553 454.903 178.568C455.494 178.583 455.941 178.606 456.244 178.636V184.091C456.062 184.045 455.645 183.977 454.994 183.886C454.357 183.78 453.683 183.727 452.971 183.727C451.274 183.727 449.759 184.083 448.425 184.795C447.107 185.492 446.062 186.462 445.289 187.705C444.532 188.932 444.153 190.333 444.153 191.909V214H438.789ZM476.042 214V179.091H481.405V214H476.042ZM478.769 173.273C477.723 173.273 476.822 172.917 476.064 172.205C475.322 171.492 474.951 170.636 474.951 169.636C474.951 168.636 475.322 167.78 476.064 167.068C476.822 166.356 477.723 166 478.769 166C479.814 166 480.708 166.356 481.451 167.068C482.208 167.78 482.587 168.636 482.587 169.636C482.587 170.636 482.208 171.492 481.451 172.205C480.708 172.917 479.814 173.273 478.769 173.273ZM519.851 179.091V183.636H501.76V179.091H519.851ZM507.033 170.727H512.396V204C512.396 205.515 512.616 206.652 513.055 207.409C513.51 208.152 514.086 208.652 514.783 208.909C515.495 209.152 516.245 209.273 517.033 209.273C517.624 209.273 518.108 209.242 518.487 209.182C518.866 209.106 519.169 209.045 519.396 209L520.487 213.818C520.124 213.955 519.616 214.091 518.965 214.227C518.313 214.379 517.487 214.455 516.487 214.455C514.972 214.455 513.487 214.129 512.033 213.477C510.593 212.826 509.396 211.833 508.442 210.5C507.502 209.167 507.033 207.485 507.033 205.455V170.727ZM541.359 214V179.091H546.723V214H541.359ZM544.086 173.273C543.041 173.273 542.139 172.917 541.382 172.205C540.639 171.492 540.268 170.636 540.268 169.636C540.268 168.636 540.639 167.78 541.382 167.068C542.139 166.356 543.041 166 544.086 166C545.132 166 546.026 166.356 546.768 167.068C547.526 167.78 547.905 168.636 547.905 169.636C547.905 170.636 547.526 171.492 546.768 172.205C546.026 172.917 545.132 173.273 544.086 173.273ZM569.987 214V179.091H575.168V184.545H575.623C576.35 182.682 577.524 181.235 579.146 180.205C580.767 179.159 582.714 178.636 584.987 178.636C587.29 178.636 589.206 179.159 590.737 180.205C592.282 181.235 593.487 182.682 594.35 184.545H594.714C595.608 182.742 596.949 181.311 598.737 180.25C600.524 179.174 602.668 178.636 605.168 178.636C608.29 178.636 610.843 179.614 612.827 181.568C614.812 183.508 615.805 186.53 615.805 190.636V214H610.441V190.636C610.441 188.061 609.737 186.22 608.327 185.114C606.918 184.008 605.259 183.455 603.35 183.455C600.896 183.455 598.994 184.197 597.646 185.682C596.297 187.152 595.623 189.015 595.623 191.273V214H590.168V190.091C590.168 188.106 589.524 186.508 588.237 185.295C586.949 184.068 585.29 183.455 583.259 183.455C581.865 183.455 580.562 183.826 579.35 184.568C578.153 185.311 577.184 186.341 576.441 187.659C575.714 188.962 575.35 190.47 575.35 192.182V214H569.987ZM653.688 214.727C650.324 214.727 647.423 213.985 644.983 212.5C642.559 211 640.688 208.909 639.37 206.227C638.067 203.53 637.415 200.394 637.415 196.818C637.415 193.242 638.067 190.091 639.37 187.364C640.688 184.621 642.521 182.485 644.87 180.955C647.233 179.409 649.991 178.636 653.142 178.636C654.961 178.636 656.756 178.939 658.529 179.545C660.302 180.152 661.915 181.136 663.37 182.5C664.824 183.848 665.983 185.636 666.847 187.864C667.711 190.091 668.142 192.833 668.142 196.091V198.364H641.233V193.727H662.688C662.688 191.758 662.294 190 661.506 188.455C660.733 186.909 659.627 185.689 658.188 184.795C656.764 183.902 655.082 183.455 653.142 183.455C651.006 183.455 649.158 183.985 647.597 185.045C646.052 186.091 644.862 187.455 644.029 189.136C643.196 190.818 642.779 192.621 642.779 194.545V197.636C642.779 200.273 643.233 202.508 644.142 204.341C645.067 206.159 646.347 207.545 647.983 208.5C649.62 209.439 651.521 209.909 653.688 209.909C655.097 209.909 656.37 209.712 657.506 209.318C658.658 208.909 659.65 208.303 660.483 207.5C661.317 206.682 661.961 205.667 662.415 204.455L667.597 205.909C667.052 207.667 666.135 209.212 664.847 210.545C663.559 211.864 661.968 212.894 660.074 213.636C658.18 214.364 656.052 214.727 653.688 214.727Z" fill="black"/>
<path d="M41.9971 61.9215L40.4232 60.3477C-11.2 103.787 -2.59624 169.732 8.15851 197.275C43.4134 278.487 123.839 278.068 159.251 268.1L158.464 265.739C103.063 269.516 62.4574 241.606 49.0794 226.392C49.8664 225.605 23.1105 206.719 15.2411 155.567C8.94559 114.647 30.4553 76.0865 41.9971 61.9215Z" fill="#1086FF"/>
<path d="M88.8522 36.4494L88.3515 34.2807C152.546 13.521 203.912 55.7632 221.57 79.4792C271.76 152.413 230.539 218.169 203.32 242.918L201.746 241.344C234.307 196.363 232.187 155.601 224.567 128.811C223.483 129.062 219.707 98.8489 180.499 65.0693C149.132 38.0457 111.248 31.2309 88.8522 36.4494Z" fill="#1086FF"/>
<path d="M136.498 151.407C135.38 153.644 127.552 155.321 122.519 156.44L117.487 157.558L52.2272 172.66L53.7413 163.709L65.1703 161.079L117.487 149.551C117.487 149.551 126.993 147.493 128.111 145.815C129.602 143.579 126.993 132.396 128.67 129.04C130.348 125.685 134.262 125.127 134.262 125.127L149.919 119.845L183.469 108.351V113.943C183.469 113.943 134.67 127.906 134.262 132.396C133.703 138.546 138.176 148.052 136.498 151.407Z" fill="#1086FF"/>
<path d="M117.624 146.093L65.8515 156.992V142.005L54.952 138.599V135.193H72.6637V128.381H81.5195V116.8H98.55V128.381H107.406V135.193H125.117V138.599L117.624 140.643V146.093Z" fill="#1086FF"/>
<path d="M131.464 158.118L86.7303 168.742L52.621 176.011L66.0411 190.55C95.6771 194.464 155.956 191.892 171.165 181.603C184.585 172.209 184.958 134.446 183.467 116.739L143.766 130.159C138.733 132.396 138.547 135.005 138.733 137.429L140.97 148.053C142.312 156.105 136.496 156.999 131.464 158.118Z" fill="#1086FF"/>
</svg>
